<?xml version="1.0" encoding="utf-8"?>
<!-- Generator: Adobe Illustrator 28.2.0, SVG Export Plug-In . SVG Version: 6.00 Build 0)  -->
<svg version="1.1" xmlns="http://www.w3.org/2000/svg" xmlns:xlink="http://www.w3.org/1999/xlink" x="0px" y="0px"
	 viewBox="0 0 5805.35 5805.35" style="enable-background:new 0 0 5805.35 5805.35;" xml:space="preserve">
<style type="text/css">
	.st0{fill:#FFFFFF;}
</style>
<g id="light">
	<g>
		<g>
			<path d="M1434.84,3414.09v-629.86h-8.36c-0.02,0.1-0.04,0.21-0.06,0.31c-8.75,44.25-24.94,88.07-48.11,130.17
				c-0.03,0.06-0.06,0.12-0.09,0.18c-2.33,4.54-4.73,9.06-7.21,13.56c-23.18,41.98-50.02,79.33-79.8,111.02
				c-21.43,22.8-43.92,43.93-67.16,63.12v491.5h527.86v-180H1434.84z M1275.95,2784.23c-18.04,14.82-35.34,29.3-51.9,43.43v33.57
				c0.93-0.81,1.86-1.63,2.79-2.43c1.41-1.23,2.82-2.46,4.24-3.69v-0.01h0.01c0.96-0.83,1.93-1.67,2.89-2.51
				c2.12-1.84,4.25-3.68,6.4-5.53c2.14-1.85,4.3-3.71,6.47-5.57c2.17-1.86,4.36-3.73,6.56-5.6c3.11-2.65,6.24-5.31,9.4-7.99
				c3.41-2.88,6.85-5.78,10.32-8.69c13.64-11.45,27.74-23.11,42.31-34.98H1275.95z M1348.74,2784.23
				c-45.65,36.51-87.28,71.25-124.69,104.06v125.67c2.35-2.19,4.7-4.41,7.03-6.65c6.97-6.68,13.85-13.54,20.63-20.58
				c26.43-27.46,50.56-60.61,71.7-98.5c0.35-0.63,0.71-1.27,1.05-1.9c0.01-0.01,0.01-0.01,0.01-0.02
				c16.76-32.93,28.82-66.81,35.92-100.92c0.08-0.39,0.15-0.78,0.22-1.16H1348.74z M1380.1,2784.23c-0.18,0.81-0.37,1.62-0.57,2.43
				c-0.6,2.54-1.23,5.07-1.89,7.59c-0.04,0.13-0.07,0.25-0.1,0.38c-0.31,1.17-0.62,2.34-0.94,3.51c-0.34,1.27-0.69,2.54-1.05,3.81
				c-0.72,2.54-1.46,5.08-2.23,7.62c-0.38,1.26-0.77,2.53-1.17,3.79c-0.4,1.27-0.8,2.53-1.21,3.8c-0.41,1.26-0.83,2.52-1.25,3.78
				c-0.42,1.27-0.85,2.53-1.29,3.79c-0.87,2.52-1.77,5.03-2.69,7.54c-0.46,1.26-0.93,2.51-1.41,3.77c-0.48,1.25-0.96,2.51-1.44,3.76
				c-0.49,1.25-0.99,2.5-1.49,3.76c-1,2.5-2.03,4.99-3.08,7.49c-0.53,1.24-1.06,2.49-1.6,3.74c-0.54,1.24-1.09,2.48-1.64,3.73
				c-0.55,1.24-1.11,2.48-1.68,3.72c-0.56,1.25-1.14,2.49-1.72,3.73c-0.58,1.24-1.16,2.47-1.75,3.71c-1.18,2.48-2.39,4.95-3.63,7.42
				c-0.62,1.23-1.24,2.46-1.88,3.7c-0.62,1.23-1.26,2.46-1.91,3.69c-0.77,1.48-1.56,2.97-2.36,4.45c-0.48,0.9-0.97,1.8-1.45,2.69
				c-0.26,0.46-0.51,0.92-0.77,1.38c-0.01,0.04-0.03,0.08-0.05,0.11c-0.03,0.07-0.07,0.14-0.11,0.21
				c-2.64,5.17-5.39,10.33-8.26,15.47c-21.87,39.2-46.54,73.06-74,101.6c-8.02,8.32-16.15,16.38-24.39,24.19
				c-2.34,2.21-4.68,4.41-7.04,6.58v34.51c0.88-0.73,1.76-1.46,2.64-2.2c1.47-1.23,2.93-2.47,4.39-3.72v-0.01h0.01
				c19.36-16.59,38.11-34.53,56.23-53.81c29.06-30.94,54.93-66.94,77.6-108c0.05-0.09,0.1-0.19,0.15-0.28
				c18.8-36.78,32.01-74.39,39.61-112.86c0.73-3.56,1.34-7.09,1.85-10.57H1380.1z M1224.05,2784.23v16.45
				c2.33-1.98,4.67-3.97,7.03-5.97c4.1-3.46,8.25-6.96,12.44-10.48H1224.05z"/>
			<path d="M1383.53,2766.73c-0.07,0.51-0.14,1.02-0.22,1.53c-0.13,0.9-0.28,1.81-0.43,2.71c-0.23,1.38-0.49,2.77-0.77,4.17
				c-0.27,1.28-0.54,2.57-0.82,3.85c-0.18,0.85-0.37,1.71-0.57,2.55c-0.13,0.59-0.26,1.18-0.4,1.77c-0.07,0.31-0.14,0.61-0.22,0.92
				c-0.18,0.81-0.37,1.62-0.57,2.43c-0.6,2.54-1.23,5.07-1.89,7.59c-0.04,0.13-0.07,0.25-0.1,0.38c-0.31,1.17-0.62,2.34-0.94,3.51
				c-0.34,1.27-0.69,2.54-1.05,3.81c-0.72,2.54-1.46,5.08-2.23,7.62c-0.38,1.26-0.77,2.53-1.17,3.79c-0.4,1.27-0.8,2.53-1.21,3.8
				c-0.41,1.26-0.83,2.52-1.25,3.78c-0.42,1.27-0.85,2.53-1.29,3.79c-0.87,2.52-1.77,5.03-2.69,7.54c-0.46,1.26-0.93,2.51-1.41,3.77
				c-0.48,1.25-0.96,2.51-1.44,3.76c-0.49,1.25-0.99,2.5-1.49,3.76c-1,2.5-2.03,4.99-3.08,7.49c-0.53,1.24-1.06,2.49-1.6,3.74
				c-0.54,1.24-1.09,2.48-1.64,3.73c-0.55,1.24-1.11,2.48-1.68,3.72c-0.56,1.25-1.14,2.49-1.72,3.73c-0.58,1.24-1.16,2.47-1.75,3.71
				c-1.18,2.48-2.39,4.95-3.63,7.42c-0.62,1.23-1.24,2.46-1.88,3.7c-0.62,1.23-1.26,2.46-1.91,3.69c-0.77,1.48-1.56,2.97-2.36,4.45
				c-0.48,0.9-0.97,1.8-1.45,2.69c-0.26,0.46-0.51,0.92-0.77,1.38c-0.01,0.04-0.03,0.08-0.05,0.11c-0.03,0.07-0.07,0.14-0.11,0.21
				c-0.41,0.74-0.82,1.47-1.23,2.21c-0.38,0.68-0.76,1.36-1.15,2.04c-0.05,0.1-0.11,0.2-0.17,0.3c-0.69,1.22-1.37,2.43-2.06,3.64
				c-0.09,0.15-0.17,0.3-0.26,0.45c-0.73,1.28-1.47,2.55-2.21,3.81c-1.52,2.61-3.06,5.19-4.6,7.75c-1.43,2.34-2.86,4.67-4.3,6.97
				c-1.44,2.3-2.89,4.59-4.36,6.85c-1.46,2.26-2.94,4.51-4.43,6.73c-1.85,2.75-3.71,5.47-5.59,8.16c-0.61,0.88-1.23,1.76-1.85,2.63
				c-1.19,1.69-2.39,3.36-3.6,5.02c-0.66,0.91-1.32,1.82-1.99,2.72c-0.58,0.8-1.18,1.59-1.77,2.38c-0.59,0.79-1.18,1.58-1.77,2.36
				c0,0.01-0.01,0.02-0.02,0.03c-0.58,0.78-1.18,1.56-1.78,2.34c-0.98,1.28-1.96,2.54-2.95,3.8c-1.27,1.63-2.56,3.25-3.85,4.85
				c-0.43,0.54-0.86,1.07-1.29,1.6c-4.29,5.27-8.65,10.4-13.09,15.38c-0.59,0.67-1.19,1.34-1.79,2c-1.02,1.13-2.04,2.25-3.06,3.36
				c-0.72,0.78-1.44,1.55-2.16,2.32c-0.75,0.8-1.5,1.6-2.25,2.39c-0.05,0.04-0.08,0.08-0.12,0.12c-0.51,0.54-1.02,1.07-1.53,1.6
				c-1.29,1.33-2.58,2.66-3.87,3.99c-1.29,1.32-2.58,2.63-3.88,3.94c-1.3,1.31-2.6,2.61-3.91,3.91c-2.29,2.28-4.59,4.53-6.89,6.76
				c-4.26,4.12-8.55,8.18-12.87,12.17h-0.01c-1.17,1.08-2.35,2.16-3.52,3.22c-2.18,1.98-4.36,3.94-6.55,5.88
				c-0.27,0.24-0.54,0.48-0.81,0.72c-1.09,0.95-2.18,1.91-3.27,2.86c-0.9,0.8-1.8,1.58-2.7,2.35c-1.27,1.11-2.55,2.2-3.83,3.29
				c-1.28,1.09-2.56,2.17-3.85,3.25v40.3c5.89-4.58,11.72-9.27,17.5-14.1c0.88-0.73,1.76-1.46,2.64-2.2
				c1.47-1.23,2.93-2.47,4.39-3.72v-0.01h0.01c19.36-16.59,38.11-34.53,56.23-53.81c29.06-30.94,54.93-66.94,77.6-108
				c0.05-0.09,0.1-0.19,0.15-0.28c2.83-5.12,5.54-10.26,8.14-15.42c0.65-1.29,1.29-2.58,1.93-3.87c0.96-1.94,1.9-3.88,2.82-5.82
				c0.31-0.65,0.62-1.3,0.92-1.94c0.61-1.3,1.22-2.59,1.81-3.89c1.2-2.59,2.36-5.19,3.49-7.79c1.12-2.54,2.2-5.09,3.26-7.64
				c0.02-0.06,0.05-0.12,0.07-0.18c1.09-2.61,2.14-5.23,3.16-7.85c1.02-2.57,2-5.14,2.95-7.72c0.61-1.65,1.21-3.31,1.8-4.97
				c0.57-1.6,1.13-3.2,1.68-4.81c0.04-0.11,0.08-0.22,0.11-0.33c0.55-1.6,1.09-3.21,1.62-4.82c0.24-0.74,0.48-1.47,0.72-2.21
				c0.3-0.93,0.6-1.86,0.89-2.79c0.84-2.65,1.65-5.31,2.42-7.96c0.44-1.49,0.87-2.99,1.29-4.49c0.02-0.07,0.04-0.14,0.06-0.21
				c0.31-1.07,0.6-2.14,0.89-3.21c0.36-1.33,0.72-2.65,1.06-3.97c0.64-2.43,1.25-4.87,1.84-7.31c0.19-0.8,0.38-1.6,0.57-2.4
				c0.44-1.85,0.86-3.7,1.27-5.56c0.16-0.73,0.32-1.47,0.48-2.21c0.17-0.74,0.32-1.48,0.47-2.21c0.32-1.51,0.63-3.03,0.93-4.54
				c0.73-3.56,1.34-7.09,1.85-10.57c0.2-1.42,0.39-2.83,0.54-4.24H1383.53z M1452.34,3396.59v-629.86h-23.15
				c-0.15,1.41-0.31,2.82-0.5,4.24c-0.57,4.37-1.31,8.79-2.21,13.26c-0.02,0.1-0.04,0.21-0.06,0.31
				c-8.75,44.25-24.94,88.07-48.11,130.17c-0.03,0.06-0.06,0.12-0.09,0.18c-0.06,0.1-0.11,0.2-0.17,0.3
				c-23.18,41.98-50.02,79.33-79.8,111.02c-21.43,22.8-43.92,43.93-67.16,63.12h-0.01c-8.09,6.68-16.27,13.13-24.53,19.33v502.93
				h562.86v-215H1452.34z M1417.34,3431.59v-562.34c-8.43,22.9-18.79,45.51-31.01,67.65c-23.89,43.28-51.61,81.82-82.37,114.55
				c-19.9,21.17-40.86,41.1-62.41,59.32v465.82h492.86v-145H1417.34z M1361.07,2766.73c-1.77,1.42-3.54,2.83-5.3,4.24
				c-45.65,36.51-87.28,71.25-124.69,104.06c-8.39,7.36-16.57,14.62-24.53,21.78v132.92c5.89-5.12,11.73-10.38,17.5-15.77
				c2.35-2.19,4.7-4.41,7.03-6.65c6.97-6.68,13.85-13.54,20.63-20.58c26.43-27.46,50.56-60.61,71.7-98.5
				c0.35-0.63,0.71-1.27,1.05-1.9c0.01-0.01,0.01-0.01,0.01-0.02c20.45-37.07,34.9-75.48,42.95-114.18
				c0.08-0.39,0.15-0.78,0.22-1.16c0.27-1.42,0.52-2.84,0.73-4.24H1361.07z M1301.1,2892.96c-17.85,31.98-37.84,60.41-59.55,84.67
				v-81.4c28.17-24.56,58.95-50.42,91.86-77.17C1325.39,2844.06,1314.58,2868.8,1301.1,2892.96z M1288.17,2766.73
				c-1.74,1.41-3.46,2.83-5.18,4.24h-0.01c-18.04,14.82-35.34,29.3-51.9,43.43c-6.11,5.21-12.11,10.37-18.01,15.49h-0.01
				c-2.03,1.76-4.05,3.52-6.06,5.26c-0.15,0.14-0.3,0.27-0.45,0.39v41.13c5.27-4.7,10.63-9.43,16.08-14.19
				c0.47-0.42,0.95-0.83,1.42-1.24v-0.01c0.93-0.81,1.86-1.63,2.79-2.43c1.41-1.23,2.82-2.46,4.24-3.69v-0.01h0.01
				c0.96-0.83,1.93-1.67,2.89-2.51c2.12-1.84,4.25-3.68,6.4-5.53c2.14-1.85,4.3-3.71,6.47-5.57c2.17-1.86,4.36-3.73,6.56-5.6
				c3.11-2.65,6.24-5.31,9.4-7.99c3.41-2.88,6.85-5.78,10.32-8.69c13.64-11.45,27.74-23.11,42.31-34.98h0.01
				c1.35-1.1,2.7-2.2,4.05-3.3c4.06-3.3,8.16-6.62,12.3-9.96h0.01c1.74-1.41,3.49-2.82,5.25-4.24H1288.17z M1206.55,2766.73v48.95
				c5.73-4.94,11.56-9.95,17.5-15c2.33-1.98,4.67-3.97,7.03-5.97c4.1-3.46,8.25-6.96,12.44-10.48c1.36-1.14,2.73-2.28,4.1-3.43
				c3.9-3.26,7.84-6.54,11.81-9.83h0.01c1.7-1.41,3.41-2.82,5.12-4.24H1206.55z"/>
		</g>
		<g>
			<path d="M1916.79,2782.31v809.86h209.56v-809.86H1916.79z"/>
			<path d="M2143.85,3609.67h-244.56v-844.86h244.56V3609.67z M1934.29,3574.67h174.56v-774.86h-174.56V3574.67z"/>
		</g>
		<g>
			<path d="M3038.29,3530.54c-82.59,50.54-174.82,72.73-315.35,72.73c-272.42,0-440.06-157.79-440.06-410.48v-0.78
				c0.1-0.18,0.2-0.3,0.29-0.5c2.11-4.51,4.52-11.08,7.34-20.08c2.83-7.17,2.77-14.84-0.2-22.26c-1.24-3.11-2.95-5.88-5.06-8.24
				c21.4-231.54,186.83-401.13,440.65-401.13c130.62,0,214.72,38.72,290.89,99.2L2906,2974.07c-41.99-38.43-75.5-49.07-152.1-49.07
				c-157.78,0-252.84,108.77-252.84,269.02c0,157.78,91.22,253.93,231.74,253.93c53.01,0,97.38-6.16,135.6-20.96v-151.61h-151.87
				v-150.21l320.95,1.11L3038.29,3530.54z"/>
			<path d="M2276.39,3154.74c-1.6-4-4.53-6.53-8.8-7.6c-0.14-0.07-0.29-0.14-0.43-0.2c-1.17,14.86-1.76,29.92-1.78,45.18
				c1.72-2.33,3.12-4.65,4.21-6.98c1.87-4,4.13-10.27,6.8-18.8C2277.99,3162.61,2277.99,3158.74,2276.39,3154.74z M3054.95,3108.84
				l-355.92-1.23v185.27h151.87v121.8c-32.43,10.74-70.35,15.77-118.1,15.77c-64.34,0-118.18-21.5-155.7-62.16
				c-38.3-41.51-58.54-101.77-58.54-174.27c0-75.06,21.66-138.26,62.63-182.75c41.43-44.99,101.15-68.77,172.71-68.77
				c72.84,0,101.68,9.14,140.28,44.48l13.63,12.48l133.79-163.11l-13.93-11.06c-43.59-34.61-84.86-58.44-129.87-74.99
				c-51.21-18.84-107.44-28-171.9-28c-68.76,0-132.95,12.07-190.8,35.87c-55.87,22.98-104.85,56.46-145.58,99.49
				c-35.49,37.5-63.92,81.4-84.66,130.71c-11.38,62.26-19.46,111.87-24.18,148.48c1.69,1.18,3.22,2.55,4.57,4.08
				c2.11,2.36,3.82,5.13,5.06,8.24c2.97,7.42,3.03,15.09,0.2,22.26c-2.82,9-5.23,15.57-7.34,20.08c-0.09,0.2-0.19,0.32-0.29,0.5v0.1
				c-2.5,5.18-6.11,10.33-10.73,15.27c-2.12,2.28-4.28,4.1-6.41,5.54c4.22,120.24,46.55,221.11,123.06,292.65
				c80.59,75.36,196.14,115.2,334.14,115.2c71.76,0,131.74-5.85,183.37-17.87c51.34-11.96,97.49-30.74,141.11-57.43l8.39-5.13
				L3054.95,3108.84z M2300.38,3192.79c0-61.75,10.03-120.08,29.82-173.38c19.52-52.58,48.03-98.91,84.74-137.69
				c37.31-39.42,82.21-70.09,133.47-91.18c53.61-22.05,113.32-33.24,177.49-33.24c60.26,0,112.54,8.46,159.82,25.85
				c36.59,13.45,70.66,32.27,106.1,58.7l-87.99,107.27c-18.44-14.82-35.73-24.28-55.54-30.66c-23.89-7.69-52.12-10.96-94.39-10.96
				c-81.6,0-150.23,27.68-198.46,80.06c-47.02,51.07-71.88,122.46-71.88,206.46c0,81.44,23.45,149.91,67.81,198
				c44.32,48.04,107.06,73.43,181.43,73.43c57.81,0,102.9-7.03,141.91-22.14l11.19-4.32v-181.11h-151.87v-115.15l285.99,0.99
				l0.75,376.9c-38.25,22.32-77.4,37.71-122.4,48.19c-48.99,11.41-106.38,16.96-175.43,16.96c-128.96,0-236.24-36.58-310.23-105.76
				C2339.22,3411.29,2300.38,3311.97,2300.38,3192.79z M2276.39,3154.74c-1.6-4-4.53-6.53-8.8-7.6c-0.14-0.07-0.29-0.14-0.43-0.2
				c-1.17,14.86-1.76,29.92-1.78,45.18c1.72-2.33,3.12-4.65,4.21-6.98c1.87-4,4.13-10.27,6.8-18.8
				C2277.99,3162.61,2277.99,3158.74,2276.39,3154.74z"/>
		</g>
		<g>
			<path d="M3778.1,2782.31v297.24l-321.73-3.42v-293.82h-210.79v809.86h210.79v-365.33h321.73v365.33h209.55v-809.86H3778.1z"/>
			<path d="M4005.15,3609.67H3760.6v-365.33h-286.73v365.33h-245.79v-844.86h245.79v294l286.73,3.05v-297.05h244.55V3609.67z
				 M3795.6,3574.67h174.55v-774.86H3795.6v297.43l-356.73-3.79v-293.63h-175.79v774.86h175.79v-365.33h356.73V3574.67z"/>
		</g>
		<g>
			<path d="M4118.3,2782.31v152.85h234.2v657.01h209.56v-657.01h235.44v-152.85H4118.3z"/>
			<path d="M4579.56,3609.67H4335v-657.01h-234.2v-187.85H4815v187.85h-235.44V3609.67z M4370,3574.67h174.56v-657.01H4780v-117.85
				h-644.2v117.85H4370V3574.67z"/>
		</g>
	</g>
</g>
<g id="spot">
	<g>
		<g>
			<path d="M1288.17,2766.73c-1.74,1.41-3.46,2.83-5.18,4.24h-0.01c-18.04,14.82-35.34,29.3-51.9,43.43
				c-6.11,5.21-12.11,10.37-18.01,15.49l18.02-15.07l52.44-43.85l5.07-4.24l16.33-13.66
				C1299.28,2757.65,1293.68,2762.2,1288.17,2766.73z M1639.72,2520.34c-2.67-3.46-6-5.6-10-6.4c-0.87-0.17-1.74-0.27-2.6-0.28
				c-3.08-0.03-6.08,1-9,3.08c-80.54,57.08-154.4,111.74-221.6,164c-7.47-12.26-16.8-23.86-28-34.8c-11.2-10.92-25.6-22-43.2-33.2
				c-17.6-11.2-33.87-21.06-48.8-29.6c-14.94-8.52-36.27-18.8-64-30.8c-27.74-12-50.14-21.6-67.2-28.8c-17.07-7.2-43.2-18-78.4-32.4
				c-28.27-11.2-49.6-19.72-64-25.6c-62.94-26.12-85.6-66.66-68-121.6c11.73-38.4,41.06-81.32,88-128.8
				c46.93-47.46,104.8-92.8,173.6-136c42.66-27.72,84.66-51.06,126-70c41.33-18.92,78.8-32.4,112.4-40.4c33.6-8,60.26-9.6,80-4.8
				c12.26,2.68,21.73,8.28,28.4,16.8c6.66,8.54,8.4,22.68,5.2,42.4c-0.54,4.28,0.53,8.14,3.2,11.6c2.66,3.48,6.13,5.48,10.4,6
				c2.66,0.54,5.33,0.28,8-0.8c2.66-1.06,4.8-2.66,6.4-4.8c1.6-2.12,2.66-4.52,3.2-7.2c2.13-16.52,1.73-30.8-1.2-42.8
				c-2.94-12-7.87-21.46-14.8-28.4c-6.94-6.92-13.74-12.12-20.4-15.6c-6.67-3.46-14-6-22-7.6c-35.2-8-84.94-0.26-149.2,23.2
				c-64.27,23.48-128,54.94-191.2,94.4c-63.2,39.48-121.47,85.48-174.8,138c-53.34,52.54-86.94,101.2-100.8,146
				c-11.2,35.2-9.34,66.4,5.6,93.6c14.93,27.2,41.6,48.8,80,64.8c14.93,6.4,36.26,15.2,64,26.4c101.33,41.08,175.46,74,222.4,98.8
				c46.93,24.8,78.4,51.88,94.4,81.2c-23.24,18.17-45.5,35.88-66.79,53.13l-16.33,13.66l-5.07,4.24l-52.44,43.85l-18.02,15.07h-0.01
				c-2.03,1.76-4.05,3.52-6.06,5.26c-0.15,0.15-0.3,0.28-0.45,0.4c-1.86,1.62-3.7,3.23-5.54,4.84c-2.97,2.61-5.92,5.2-8.84,7.78
				c-0.97,0.86-1.94,1.72-2.91,2.58c-7.75,6.85-15.3,13.63-22.66,20.31c-3.68,3.35-7.31,6.66-10.89,9.96
				c-19.71,18.11-37.96,35.55-54.76,52.31c-2.1,2.1-4.18,4.18-6.23,6.25c-2.06,2.08-4.09,4.14-6.1,6.19
				c-4.01,4.1-7.94,8.16-11.78,12.18c-0.96,1-1.91,2.01-2.86,3.01c-1.89,2-3.77,3.98-5.62,5.96c-1.85,1.98-3.67,3.94-5.48,5.9
				c-0.9,0.97-1.8,1.95-2.69,2.92c-1.78,1.94-3.53,3.88-5.27,5.8c-6.44,7.14-12.54,14.09-18.28,20.85
				c-1.63,1.93-3.24,3.85-4.83,5.75v0.01c-1.58,1.9-3.13,3.78-4.66,5.65v0.01c-1.52,1.87-3.01,3.72-4.49,5.56
				c-0.74,0.93-1.47,1.85-2.18,2.76c-2.87,3.65-5.63,7.23-8.28,10.76v0.01c-1.98,2.65-3.9,5.26-5.76,7.83
				c-1.24,1.72-2.45,3.43-3.63,5.12c-1.17,1.69-2.32,3.36-3.45,5.02c-1.69,2.49-3.31,4.94-4.85,7.37c-1.04,1.61-2.04,3.2-3.02,4.78
				c-2.94,4.75-5.62,9.36-8.03,13.84c-0.8,1.49-1.58,2.96-2.33,4.42c-0.38,0.73-0.74,1.46-1.1,2.19c-0.72,1.44-1.4,2.87-2.07,4.28
				c-0.33,0.7-0.66,1.41-0.97,2.12c-0.63,1.39-1.23,2.78-1.81,4.14c-1.16,2.74-2.19,5.42-3.11,8.04c-0.23,0.66-0.45,1.31-0.67,1.96
				c-4.46,13.35-5.84,25.08-4.16,35.19c0.12,0.69,0.25,1.38,0.39,2.05c0.44,2.03,1,3.99,1.69,5.89c0.65,1.8,1.38,3.52,2.19,5.15
				c7.86,15.77,23.4,23.65,46.6,23.65c2.66,0,5.6-0.27,8.8-0.8c21.86-1.6,47.33-8.8,76.4-21.6c29.06-12.8,59.73-31.2,92-55.2
				c3.04-2.26,6.07-4.56,9.08-6.87c0.72-0.56,1.44-1.12,2.16-1.68v-0.01c5.89-4.58,11.72-9.27,17.5-14.1
				c0.88-0.73,1.76-1.46,2.64-2.2c1.47-1.23,2.93-2.47,4.39-3.72v-0.01h0.01c19.36-16.59,38.11-34.53,56.23-53.81
				c29.06-30.94,54.93-66.94,77.6-108c0.05-0.09,0.1-0.19,0.15-0.28c2.83-5.12,5.54-10.26,8.14-15.42c0.65-1.29,1.29-2.58,1.93-3.87
				c0.96-1.94,1.9-3.88,2.82-5.82c0.31-0.65,0.62-1.3,0.92-1.94c0.61-1.3,1.22-2.59,1.81-3.89c1.19-2.59,2.35-5.19,3.49-7.79
				c1.11-2.55,2.19-5.09,3.26-7.64c0.02-0.06,0.05-0.12,0.07-0.18c1.08-2.62,2.13-5.23,3.16-7.85c1.01-2.57,1.99-5.14,2.95-7.72
				c0.61-1.65,1.21-3.31,1.8-4.97c0.57-1.6,1.13-3.2,1.68-4.81c0.04-0.11,0.08-0.22,0.11-0.33c0.55-1.6,1.09-3.21,1.62-4.82
				c0.24-0.74,0.48-1.47,0.72-2.21c0.3-0.93,0.6-1.86,0.89-2.79c0.84-2.65,1.64-5.3,2.42-7.96c0.44-1.49,0.87-2.99,1.29-4.49
				c0.02-0.07,0.04-0.14,0.06-0.21c0.31-1.07,0.6-2.14,0.89-3.21c0.36-1.33,0.72-2.65,1.06-3.97c0.64-2.43,1.25-4.87,1.84-7.31
				c0.19-0.8,0.38-1.6,0.57-2.4c0.44-1.85,0.86-3.7,1.27-5.56c0.16-0.73,0.32-1.47,0.48-2.21c0.17-0.74,0.32-1.48,0.47-2.21
				c0.32-1.51,0.63-3.03,0.93-4.54c0.73-3.56,1.34-7.09,1.85-10.57c0.2-1.42,0.39-2.83,0.54-4.24c0.11-0.96,0.22-1.92,0.31-2.87
				c0.05-0.48,0.1-0.96,0.14-1.43c0.08-0.81,0.15-1.61,0.2-2.4c0.03-0.33,0.06-0.66,0.07-0.98c0.03-0.29,0.05-0.58,0.06-0.86
				c0.01-0.02,0.01-0.04,0-0.05c0.06-0.94,0.11-1.87,0.15-2.8c0.03-0.35,0.04-0.69,0.05-1.03c0.02-0.35,0.03-0.69,0.03-1.03
				c0.02-0.77,0.04-1.54,0.05-2.3c0.03-1.42,0.03-2.83,0.01-4.22c-0.01-0.64-0.02-1.28-0.04-1.92c-0.01-0.62-0.03-1.23-0.06-1.84
				c-0.01-0.34-0.02-0.68-0.05-1.01c-0.01-0.34-0.02-0.68-0.05-1.02c-0.02-0.5-0.05-0.99-0.09-1.48c-0.03-0.56-0.07-1.11-0.12-1.66
				c-0.02-0.35-0.05-0.7-0.08-1.05c-0.04-0.47-0.08-0.94-0.13-1.41c-0.06-0.63-0.13-1.25-0.2-1.87c-0.02-0.26-0.05-0.52-0.09-0.77
				c-0.04-0.46-0.1-0.91-0.16-1.37c-0.06-0.45-0.12-0.9-0.19-1.35c-0.06-0.48-0.13-0.96-0.2-1.43c-0.06-0.45-0.13-0.9-0.21-1.34
				c-0.07-0.45-0.14-0.89-0.22-1.33c-0.14-0.86-0.3-1.71-0.47-2.57c-0.08-0.47-0.18-0.94-0.28-1.4c-0.03-0.19-0.07-0.38-0.12-0.57
				c-0.03-0.19-0.07-0.38-0.12-0.57c-0.13-0.62-0.27-1.24-0.41-1.85c-0.32-1.38-0.66-2.75-1.03-4.11c-0.15-0.58-0.31-1.16-0.48-1.73
				c-0.16-0.6-0.33-1.2-0.52-1.79c-0.17-0.6-0.35-1.19-0.54-1.78c63.97-49.48,134.26-101.77,210.88-156.86h0.01
				c5.14-3.71,10.31-7.42,15.51-11.14c3.73-2.66,6-6,6.8-10S1642.38,2523.82,1639.72,2520.34z M1383.31,2768.26
				c-0.12,0.9-0.27,1.8-0.42,2.71c-0.23,1.38-0.49,2.77-0.77,4.17c-0.27,1.29-0.54,2.57-0.83,3.85c-0.18,0.85-0.37,1.71-0.57,2.55
				c-0.13,0.59-0.26,1.18-0.4,1.77c-0.07,0.31-0.14,0.61-0.21,0.92c-0.19,0.81-0.38,1.62-0.58,2.43c-0.6,2.54-1.23,5.07-1.89,7.59
				c-0.04,0.13-0.07,0.25-0.1,0.38c-0.3,1.17-0.62,2.34-0.94,3.51c-0.34,1.27-0.69,2.54-1.05,3.81c-0.71,2.54-1.45,5.08-2.23,7.62
				c-0.38,1.26-0.77,2.53-1.17,3.79c-0.39,1.27-0.79,2.54-1.21,3.8c-0.4,1.26-0.82,2.52-1.25,3.78c-0.42,1.27-0.85,2.53-1.29,3.79
				c-0.87,2.52-1.76,5.03-2.69,7.54c-0.46,1.26-0.93,2.51-1.41,3.77c-0.46,1.26-0.94,2.51-1.44,3.76c-0.48,1.25-0.98,2.51-1.49,3.76
				c-0.99,2.5-2.02,5-3.08,7.49c-0.52,1.25-1.05,2.49-1.6,3.74c-0.53,1.24-1.08,2.48-1.64,3.73c-0.54,1.24-1.1,2.48-1.68,3.72
				c-0.56,1.25-1.14,2.49-1.72,3.73c-0.57,1.24-1.15,2.47-1.75,3.71c-1.18,2.48-2.39,4.95-3.63,7.42c-0.62,1.23-1.24,2.46-1.88,3.7
				c-0.62,1.23-1.26,2.46-1.91,3.69c-0.77,1.48-1.56,2.97-2.36,4.45c-0.48,0.9-0.97,1.8-1.45,2.69c-0.26,0.46-0.51,0.92-0.77,1.38
				c-0.01,0.04-0.03,0.08-0.05,0.11c-0.03,0.07-0.07,0.14-0.11,0.21c-0.4,0.74-0.81,1.47-1.22,2.21c-0.38,0.68-0.76,1.37-1.16,2.04
				c-0.05,0.1-0.11,0.2-0.17,0.3c-0.69,1.22-1.37,2.43-2.06,3.64c-0.09,0.15-0.17,0.3-0.26,0.45c-0.73,1.28-1.47,2.55-2.21,3.81
				c-1.52,2.61-3.06,5.19-4.6,7.75c-1.43,2.34-2.86,4.67-4.3,6.97c-1.44,2.3-2.89,4.59-4.36,6.85c-1.46,2.26-2.94,4.51-4.43,6.73
				c-1.85,2.75-3.71,5.47-5.59,8.16c-0.61,0.88-1.23,1.76-1.85,2.63c-1.19,1.69-2.39,3.36-3.6,5.02c-0.66,0.91-1.32,1.82-1.99,2.72
				c-0.58,0.8-1.18,1.59-1.77,2.38c-0.59,0.79-1.18,1.58-1.77,2.36c0,0.01-0.01,0.02-0.02,0.03c-0.58,0.78-1.18,1.56-1.78,2.34
				c-0.98,1.28-1.96,2.54-2.95,3.8c-1.27,1.63-2.56,3.25-3.85,4.85c-0.43,0.54-0.86,1.07-1.29,1.6c-4.29,5.27-8.65,10.4-13.09,15.38
				c-0.59,0.67-1.19,1.34-1.79,2c-1.02,1.13-2.04,2.25-3.06,3.36c-0.72,0.78-1.44,1.55-2.16,2.32c-0.75,0.8-1.5,1.6-2.25,2.39
				c-0.05,0.04-0.08,0.08-0.12,0.12c-0.5,0.54-1.01,1.07-1.52,1.6c-1.29,1.34-2.58,2.67-3.88,3.99c-1.28,1.32-2.58,2.64-3.88,3.94
				c-1.3,1.31-2.6,2.61-3.91,3.91c-2.29,2.28-4.59,4.53-6.89,6.76c-4.26,4.12-8.55,8.18-12.87,12.17h-0.01
				c-1.17,1.08-2.35,2.16-3.52,3.22c-2.18,1.98-4.36,3.94-6.55,5.88c-0.27,0.24-0.54,0.48-0.81,0.72c-1.09,0.95-2.18,1.91-3.27,2.86
				c-0.9,0.8-1.8,1.58-2.7,2.35c-1.27,1.11-2.55,2.2-3.83,3.29c-1.28,1.09-2.56,2.17-3.85,3.25v0.01c-0.85,0.72-1.71,1.43-2.56,2.14
				c-9.16,7.59-18.46,14.9-27.88,21.91c-30.14,22.4-58.4,39.46-84.8,51.2c-26.4,11.73-48.67,18.4-66.8,20
				c-4.69,0.32-8.77,0.3-12.23-0.06c-0.42-0.04-0.84-0.09-1.25-0.15c-0.07-0.01-0.15-0.02-0.21-0.03c-0.4-0.05-0.78-0.11-1.17-0.18
				c-0.78-0.14-1.52-0.3-2.22-0.48c-0.23-0.05-0.47-0.11-0.69-0.18c-0.23-0.06-0.46-0.13-0.68-0.2c-0.3-0.09-0.6-0.19-0.88-0.3
				c-0.22-0.08-0.44-0.16-0.65-0.25c-0.1-0.04-0.21-0.08-0.31-0.13c-0.25-0.1-0.49-0.21-0.72-0.33c-0.65-0.31-1.23-0.65-1.77-1.02
				c-0.24-0.17-0.47-0.34-0.69-0.53c-0.23-0.18-0.44-0.37-0.64-0.56c-0.26-0.26-0.51-0.53-0.74-0.8c-0.27-0.33-0.52-0.67-0.73-1.03
				c-0.1-0.18-0.2-0.35-0.29-0.53c-0.2-0.4-0.38-0.81-0.52-1.24c-4.27-11.74,4-33.2,24.8-64.4c1.3-1.95,2.64-3.92,4-5.9
				c1.38-1.99,2.78-3.99,4.22-6.01c1.45-2.02,2.92-4.05,4.43-6.1c3.03-4.11,6.2-8.29,9.5-12.53c4.75-6.1,9.79-12.34,15.14-18.72
				c0.47-0.56,0.93-1.11,1.41-1.67c1.2-1.44,2.43-2.9,3.69-4.36c0.91-1.07,1.84-2.15,2.77-3.23c1.09-1.28,2.2-2.56,3.33-3.85
				c3.37-3.85,6.84-7.76,10.4-11.72c0-0.01,0.01-0.01,0.01-0.01c1.19-1.31,2.39-2.64,3.6-3.97c1.22-1.33,2.44-2.66,3.67-4
				c2.47-2.69,4.99-5.39,7.54-8.12c1.28-1.36,2.57-2.73,3.87-4.1c1.31-1.37,2.62-2.75,3.94-4.14c1.46-1.54,2.95-3.08,4.45-4.63
				c1.2-1.24,2.41-2.49,3.63-3.74c1.05-1.07,2.1-2.13,3.16-3.2c1.06-1.08,2.12-2.15,3.2-3.23c1.07-1.07,2.14-2.15,3.23-3.23
				c1.22-1.22,2.44-2.44,3.68-3.66c1.72-1.7,3.45-3.41,5.19-5.12c14.04-13.81,29-28.02,44.88-42.65c2.17-2,4.36-4.01,6.57-6.03
				c0.73-0.67,1.46-1.34,2.19-2c1.47-1.34,2.95-2.69,4.44-4.04c5.65-5.13,11.41-10.3,17.28-15.52c0.07-0.07,0.14-0.13,0.21-0.18
				v-0.01c5.27-4.7,10.63-9.43,16.08-14.19c0.47-0.42,0.95-0.83,1.42-1.24v-0.01c0.93-0.81,1.86-1.63,2.79-2.43
				c1.41-1.23,2.82-2.46,4.24-3.69v-0.01h0.01c0.96-0.83,1.93-1.67,2.89-2.51c2.12-1.84,4.25-3.68,6.4-5.53
				c2.14-1.85,4.3-3.71,6.47-5.57c2.17-1.86,4.36-3.73,6.56-5.6c3.11-2.65,6.24-5.31,9.4-7.99c3.41-2.88,6.85-5.78,10.32-8.69
				c13.64-11.45,27.74-23.11,42.31-34.98h0.01c1.35-1.1,2.7-2.2,4.05-3.3c4.06-3.3,8.16-6.62,12.3-9.96h0.01
				c1.74-1.41,3.49-2.82,5.25-4.24h0.01c0.31-0.26,0.62-0.5,0.93-0.76c8.31-6.67,16.76-13.41,25.35-20.21
				c2.14-1.7,4.3-3.41,6.47-5.12c1.74-1.38,3.49-2.76,5.25-4.14c1.51-1.19,3.03-2.38,4.55-3.57c1.1-0.86,2.19-1.72,3.29-2.58v-0.01
				h0.01c0.15,0.78,0.29,1.57,0.42,2.36c-0.01,0.01-0.01,0.02,0,0.03c0.27,1.59,0.5,3.19,0.68,4.81c0.19,1.62,0.35,3.25,0.45,4.9
				c0.07,0.82,0.11,1.64,0.15,2.47c0.11,2.49,0.14,5,0.08,7.55c-0.03,1.72-0.11,3.45-0.23,5.19c-0.05,0.87-0.12,1.74-0.2,2.62
				c-0.09,0.99-0.19,1.99-0.3,2.99c-0.07,0.68-0.15,1.38-0.25,2.07c-0.01,0.09-0.02,0.18-0.03,0.27c-0.05,0.38-0.1,0.75-0.15,1.13
				C1383.47,2767.24,1383.4,2767.75,1383.31,2768.26z"/>
			<path d="M1224.05,2841.39c-5.94,5.14-11.77,10.24-17.5,15.29c-39.75,35.02-74.75,67.88-104.78,98.4
				c-39.38,40.45-70.11,77.11-91.33,108.94c-24.4,36.61-32.58,60.57-26.48,77.66c4.62,13.54,18.61,19.6,41.59,18.03l0.29-0.03
				c19.95-1.76,43.37-8.7,71.57-21.23c27.29-12.14,56.78-29.92,87.66-52.87c7.22-5.37,14.37-10.93,21.48-16.67
				c5.88-4.75,11.71-9.63,17.5-14.64c2.36-2.03,4.7-4.08,7.04-6.16v-20.2h-0.01c-1.17,1.08-2.35,2.16-3.52,3.22
				c-2.18,1.98-4.36,3.94-6.55,5.88c-0.27,0.24-0.54,0.48-0.81,0.72c-1.09,0.95-2.18,1.91-3.27,2.86c-0.9,0.8-1.8,1.58-2.7,2.35
				c-1.27,1.11-2.55,2.2-3.83,3.29c-1.28,1.09-2.56,2.17-3.85,3.25v0.01c-0.85,0.72-1.71,1.43-2.56,2.14
				c-9.16,7.59-18.46,14.9-27.88,21.91c-30.14,22.4-58.4,39.46-84.8,51.2c-26.4,11.73-48.67,18.4-66.8,20
				c-4.69,0.32-8.77,0.3-12.23-0.06c-0.42-0.04-0.84-0.09-1.25-0.15c-0.07-0.01-0.15-0.02-0.21-0.03c-0.4-0.05-0.78-0.11-1.17-0.18
				c-0.78-0.14-1.52-0.3-2.22-0.48c-0.23-0.05-0.47-0.11-0.69-0.18c-0.23-0.06-0.46-0.13-0.68-0.2c-0.3-0.09-0.6-0.19-0.88-0.3
				c-0.22-0.08-0.44-0.16-0.65-0.25c-0.1-0.04-0.21-0.08-0.31-0.13c-0.25-0.1-0.49-0.21-0.72-0.33c-0.65-0.31-1.23-0.65-1.77-1.02
				c-0.24-0.17-0.47-0.34-0.69-0.53c-0.23-0.18-0.44-0.37-0.64-0.56c-0.26-0.26-0.51-0.53-0.74-0.8c-0.27-0.33-0.52-0.67-0.73-1.03
				c-0.1-0.18-0.2-0.35-0.29-0.53c-0.2-0.4-0.38-0.81-0.52-1.24c-4.27-11.74,4-33.2,24.8-64.4c1.3-1.95,2.64-3.92,4-5.9
				c1.38-1.99,2.78-3.99,4.22-6.01c1.45-2.02,2.92-4.05,4.43-6.1c3.03-4.11,6.2-8.29,9.5-12.53c4.75-6.1,9.79-12.34,15.14-18.72
				c0.47-0.56,0.93-1.11,1.41-1.67c1.2-1.44,2.43-2.9,3.69-4.36c0.91-1.07,1.84-2.15,2.77-3.23c1.09-1.28,2.2-2.56,3.33-3.85
				c3.37-3.85,6.84-7.76,10.4-11.72c0-0.01,0.01-0.01,0.01-0.01c1.19-1.31,2.39-2.64,3.6-3.97c1.22-1.33,2.44-2.66,3.67-4
				c2.47-2.69,4.99-5.39,7.54-8.12c1.28-1.36,2.57-2.73,3.87-4.1c1.31-1.37,2.62-2.75,3.94-4.14c1.46-1.54,2.95-3.08,4.45-4.63
				c1.2-1.24,2.41-2.49,3.63-3.74c1.05-1.07,2.1-2.13,3.16-3.2c1.06-1.08,2.12-2.15,3.2-3.23c1.07-1.07,2.14-2.15,3.23-3.23
				c1.22-1.22,2.44-2.44,3.68-3.66c1.72-1.7,3.45-3.41,5.19-5.12c14.04-13.81,29-28.02,44.88-42.65c2.17-2,4.36-4.01,6.57-6.03
				c0.73-0.67,1.46-1.34,2.19-2c1.47-1.34,2.95-2.69,4.44-4.04c5.65-5.13,11.41-10.3,17.28-15.52c0.07-0.07,0.14-0.13,0.21-0.18
				v-0.01c5.27-4.7,10.63-9.43,16.08-14.19c0.47-0.42,0.95-0.83,1.42-1.24v-0.01c0.93-0.81,1.86-1.63,2.79-2.43
				c1.41-1.23,2.82-2.46,4.24-3.69v-0.01h0.01v-19.8C1228.73,2837.34,1226.38,2839.37,1224.05,2841.39z M1224.05,2841.39
				c-5.94,5.14-11.77,10.24-17.5,15.29c-39.75,35.02-74.75,67.88-104.78,98.4c-39.38,40.45-70.11,77.11-91.33,108.94
				c-24.4,36.61-32.58,60.57-26.48,77.66c4.62,13.54,18.61,19.6,41.59,18.03l0.29-0.03c19.95-1.76,43.37-8.7,71.57-21.23
				c27.29-12.14,56.78-29.92,87.66-52.87c7.22-5.37,14.37-10.93,21.48-16.67c5.88-4.75,11.71-9.63,17.5-14.64
				c2.36-2.03,4.7-4.08,7.04-6.16v-20.2h-0.01c-1.17,1.08-2.35,2.16-3.52,3.22c-2.18,1.98-4.36,3.94-6.55,5.88
				c-0.27,0.24-0.54,0.48-0.81,0.72c-1.09,0.95-2.18,1.91-3.27,2.86c-0.9,0.8-1.8,1.58-2.7,2.35c-1.27,1.11-2.55,2.2-3.83,3.29
				c-1.28,1.09-2.56,2.17-3.85,3.25v0.01c-0.85,0.72-1.71,1.43-2.56,2.14c-9.16,7.59-18.46,14.9-27.88,21.91
				c-30.14,22.4-58.4,39.46-84.8,51.2c-26.4,11.73-48.67,18.4-66.8,20c-4.69,0.32-8.77,0.3-12.23-0.06
				c-0.42-0.04-0.84-0.09-1.25-0.15c-0.07-0.01-0.15-0.02-0.21-0.03c-0.4-0.05-0.78-0.11-1.17-0.18c-0.78-0.14-1.52-0.3-2.22-0.48
				c-0.23-0.05-0.47-0.11-0.69-0.18c-0.23-0.06-0.46-0.13-0.68-0.2c-0.3-0.09-0.6-0.19-0.88-0.3c-0.22-0.08-0.44-0.16-0.65-0.25
				c-0.1-0.04-0.21-0.08-0.31-0.13c-0.25-0.1-0.49-0.21-0.72-0.33c-0.65-0.31-1.23-0.65-1.77-1.02c-0.24-0.17-0.47-0.34-0.69-0.53
				c-0.23-0.18-0.44-0.37-0.64-0.56c-0.26-0.26-0.51-0.53-0.74-0.8c-0.27-0.33-0.52-0.67-0.73-1.03c-0.1-0.18-0.2-0.35-0.29-0.53
				c-0.2-0.4-0.38-0.81-0.52-1.24c-4.27-11.74,4-33.2,24.8-64.4c1.3-1.95,2.64-3.92,4-5.9c1.38-1.99,2.78-3.99,4.22-6.01
				c1.45-2.02,2.92-4.05,4.43-6.1c3.03-4.11,6.2-8.29,9.5-12.53c4.75-6.1,9.79-12.34,15.14-18.72c0.47-0.56,0.93-1.11,1.41-1.67
				c1.2-1.44,2.43-2.9,3.69-4.36c0.91-1.07,1.84-2.15,2.77-3.23c1.09-1.28,2.2-2.56,3.33-3.85c3.37-3.85,6.84-7.76,10.4-11.72
				c0-0.01,0.01-0.01,0.01-0.01c1.19-1.31,2.39-2.64,3.6-3.97c1.22-1.33,2.44-2.66,3.67-4c2.47-2.69,4.99-5.39,7.54-8.12
				c1.28-1.36,2.57-2.73,3.87-4.1c1.31-1.37,2.62-2.75,3.94-4.14c1.46-1.54,2.95-3.08,4.45-4.63c1.2-1.24,2.41-2.49,3.63-3.74
				c1.05-1.07,2.1-2.13,3.16-3.2c1.06-1.08,2.12-2.15,3.2-3.23c1.07-1.07,2.14-2.15,3.23-3.23c1.22-1.22,2.44-2.44,3.68-3.66
				c1.72-1.7,3.45-3.41,5.19-5.12c14.04-13.81,29-28.02,44.88-42.65c2.17-2,4.36-4.01,6.57-6.03c0.73-0.67,1.46-1.34,2.19-2
				c1.47-1.34,2.95-2.69,4.44-4.04c5.65-5.13,11.41-10.3,17.28-15.52c0.07-0.07,0.14-0.13,0.21-0.18v-0.01
				c5.27-4.7,10.63-9.43,16.08-14.19c0.47-0.42,0.95-0.83,1.42-1.24v-0.01c0.93-0.81,1.86-1.63,2.79-2.43
				c1.41-1.23,2.82-2.46,4.24-3.69v-0.01h0.01v-19.8C1228.73,2837.34,1226.38,2839.37,1224.05,2841.39z M1224.05,2841.39
				c-5.94,5.14-11.77,10.24-17.5,15.29c-39.75,35.02-74.75,67.88-104.78,98.4c-39.38,40.45-70.11,77.11-91.33,108.94
				c-24.4,36.61-32.58,60.57-26.48,77.66c4.62,13.54,18.61,19.6,41.59,18.03l0.29-0.03c19.95-1.76,43.37-8.7,71.57-21.23
				c27.29-12.14,56.78-29.92,87.66-52.87c7.22-5.37,14.37-10.93,21.48-16.67c5.88-4.75,11.71-9.63,17.5-14.64
				c2.36-2.03,4.7-4.08,7.04-6.16v-20.2h-0.01c-1.17,1.08-2.35,2.16-3.52,3.22c-2.18,1.98-4.36,3.94-6.55,5.88
				c-0.27,0.24-0.54,0.48-0.81,0.72c-1.09,0.95-2.18,1.91-3.27,2.86c-0.9,0.8-1.8,1.58-2.7,2.35c-1.27,1.11-2.55,2.2-3.83,3.29
				c-1.28,1.09-2.56,2.17-3.85,3.25v0.01c-0.85,0.72-1.71,1.43-2.56,2.14c-9.16,7.59-18.46,14.9-27.88,21.91
				c-30.14,22.4-58.4,39.46-84.8,51.2c-26.4,11.73-48.67,18.4-66.8,20c-4.69,0.32-8.77,0.3-12.23-0.06
				c-0.42-0.04-0.84-0.09-1.25-0.15c-0.07-0.01-0.15-0.02-0.21-0.03c-0.4-0.05-0.78-0.11-1.17-0.18c-0.78-0.14-1.52-0.3-2.22-0.48
				c-0.23-0.05-0.47-0.11-0.69-0.18c-0.23-0.06-0.46-0.13-0.68-0.2c-0.3-0.09-0.6-0.19-0.88-0.3c-0.22-0.08-0.44-0.16-0.65-0.25
				c-0.1-0.04-0.21-0.08-0.31-0.13c-0.25-0.1-0.49-0.21-0.72-0.33c-0.65-0.31-1.23-0.65-1.77-1.02c-0.24-0.17-0.47-0.34-0.69-0.53
				c-0.23-0.18-0.44-0.37-0.64-0.56c-0.26-0.26-0.51-0.53-0.74-0.8c-0.27-0.33-0.52-0.67-0.73-1.03c-0.1-0.18-0.2-0.35-0.29-0.53
				c-0.2-0.4-0.38-0.81-0.52-1.24c-4.27-11.74,4-33.2,24.8-64.4c1.3-1.95,2.64-3.92,4-5.9c1.38-1.99,2.78-3.99,4.22-6.01
				c1.45-2.02,2.92-4.05,4.43-6.1c3.03-4.11,6.2-8.29,9.5-12.53c4.75-6.1,9.79-12.34,15.14-18.72c0.47-0.56,0.93-1.11,1.41-1.67
				c1.2-1.44,2.43-2.9,3.69-4.36c0.91-1.07,1.84-2.15,2.77-3.23c1.09-1.28,2.2-2.56,3.33-3.85c3.37-3.85,6.84-7.76,10.4-11.72
				c0-0.01,0.01-0.01,0.01-0.01c1.19-1.31,2.39-2.64,3.6-3.97c1.22-1.33,2.44-2.66,3.67-4c2.47-2.69,4.99-5.39,7.54-8.12
				c1.28-1.36,2.57-2.73,3.87-4.1c1.31-1.37,2.62-2.75,3.94-4.14c1.46-1.54,2.95-3.08,4.45-4.63c1.2-1.24,2.41-2.49,3.63-3.74
				c1.05-1.07,2.1-2.13,3.16-3.2c1.06-1.08,2.12-2.15,3.2-3.23c1.07-1.07,2.14-2.15,3.23-3.23c1.22-1.22,2.44-2.44,3.68-3.66
				c1.72-1.7,3.45-3.41,5.19-5.12c14.04-13.81,29-28.02,44.88-42.65c2.17-2,4.36-4.01,6.57-6.03c0.73-0.67,1.46-1.34,2.19-2
				c1.47-1.34,2.95-2.69,4.44-4.04c5.65-5.13,11.41-10.3,17.28-15.52c0.07-0.07,0.14-0.13,0.21-0.18v-0.01
				c5.27-4.7,10.63-9.43,16.08-14.19c0.47-0.42,0.95-0.83,1.42-1.24v-0.01c0.93-0.81,1.86-1.63,2.79-2.43
				c1.41-1.23,2.82-2.46,4.24-3.69v-0.01h0.01v-19.8C1228.73,2837.34,1226.38,2839.37,1224.05,2841.39z M1206.55,2856.68
				c-39.75,35.02-74.75,67.88-104.78,98.4c-39.38,40.45-70.11,77.11-91.33,108.94c-24.4,36.61-32.58,60.57-26.48,77.66
				c4.62,13.54,18.61,19.6,41.59,18.03l0.29-0.03c19.95-1.76,43.37-8.7,71.57-21.23c27.29-12.14,56.78-29.92,87.66-52.87
				c7.22-5.37,14.37-10.93,21.48-16.67v-19.42c-0.85,0.72-1.71,1.43-2.56,2.14c-9.16,7.59-18.46,14.9-27.88,21.91
				c-30.14,22.4-58.4,39.46-84.8,51.2c-26.4,11.73-48.67,18.4-66.8,20c-4.69,0.32-8.77,0.3-12.23-0.06
				c-0.42-0.04-0.84-0.09-1.25-0.15c-0.07-0.01-0.15-0.02-0.21-0.03c-0.4-0.05-0.78-0.11-1.17-0.18c-0.78-0.14-1.52-0.3-2.22-0.48
				c-0.23-0.05-0.47-0.11-0.69-0.18c-0.23-0.06-0.46-0.13-0.68-0.2c-0.3-0.09-0.6-0.19-0.88-0.3c-0.22-0.08-0.44-0.16-0.65-0.25
				c-0.1-0.04-0.21-0.08-0.31-0.13c-0.25-0.1-0.49-0.21-0.72-0.33c-0.65-0.31-1.23-0.65-1.77-1.02c-0.24-0.17-0.47-0.34-0.69-0.53
				c-0.23-0.18-0.44-0.37-0.64-0.56c-0.26-0.26-0.51-0.53-0.74-0.8c-0.27-0.33-0.52-0.67-0.73-1.03c-0.1-0.18-0.2-0.35-0.29-0.53
				c-0.2-0.4-0.38-0.81-0.52-1.24c-4.27-11.74,4-33.2,24.8-64.4c1.3-1.95,2.64-3.92,4-5.9c1.38-1.99,2.78-3.99,4.22-6.01
				c1.45-2.02,2.92-4.05,4.43-6.1c3.03-4.11,6.2-8.29,9.5-12.53c4.75-6.1,9.79-12.34,15.14-18.72c0.47-0.56,0.93-1.11,1.41-1.67
				c1.2-1.44,2.43-2.9,3.69-4.36c0.91-1.07,1.84-2.15,2.77-3.23c1.09-1.28,2.2-2.56,3.33-3.85c3.37-3.85,6.84-7.76,10.4-11.72
				c0-0.01,0.01-0.01,0.01-0.01c1.19-1.31,2.39-2.64,3.6-3.97c1.22-1.33,2.44-2.66,3.67-4c2.47-2.69,4.99-5.39,7.54-8.12
				c1.28-1.36,2.57-2.73,3.87-4.1c1.31-1.37,2.62-2.75,3.94-4.14c1.46-1.54,2.95-3.08,4.45-4.63c1.2-1.24,2.41-2.49,3.63-3.74
				c1.05-1.07,2.1-2.13,3.16-3.2c1.06-1.08,2.12-2.15,3.2-3.23c1.07-1.07,2.14-2.15,3.23-3.23c1.22-1.22,2.44-2.44,3.68-3.66
				c1.72-1.7,3.45-3.41,5.19-5.12c14.04-13.81,29-28.02,44.88-42.65c2.17-2,4.36-4.01,6.57-6.03c0.73-0.67,1.46-1.34,2.19-2
				c1.47-1.34,2.95-2.69,4.44-4.04c5.65-5.13,11.41-10.3,17.28-15.52c0.07-0.07,0.14-0.13,0.21-0.18v-0.01
				c5.27-4.7,10.63-9.43,16.08-14.19c0.47-0.42,0.95-0.83,1.42-1.24v-19.85C1218.11,2846.53,1212.28,2851.63,1206.55,2856.68z
				 M1231.08,3027.91c-1.17,1.08-2.35,2.16-3.52,3.22c-2.18,1.98-4.36,3.94-6.55,5.88c-0.27,0.24-0.54,0.48-0.81,0.72
				c-1.09,0.95-2.18,1.91-3.27,2.86c-0.9,0.8-1.8,1.58-2.7,2.35c-1.27,1.11-2.55,2.2-3.83,3.29c-1.28,1.09-2.56,2.17-3.85,3.25v0.01
				c-0.85,0.72-1.71,1.43-2.56,2.14c-9.16,7.59-18.46,14.9-27.88,21.91c-30.14,22.4-58.4,39.46-84.8,51.2
				c-26.4,11.73-48.67,18.4-66.8,20c-4.69,0.32-8.77,0.3-12.23-0.06c-0.42-0.04-0.84-0.09-1.25-0.15c-0.07-0.01-0.15-0.02-0.21-0.03
				c-0.4-0.05-0.78-0.11-1.17-0.18c-0.78-0.14-1.52-0.3-2.22-0.48c-0.23-0.05-0.47-0.11-0.69-0.18c-0.23-0.06-0.46-0.13-0.68-0.2
				c-0.3-0.09-0.6-0.19-0.88-0.3c-0.22-0.08-0.44-0.16-0.65-0.25c-0.1-0.04-0.21-0.08-0.31-0.13c-0.25-0.1-0.49-0.21-0.72-0.33
				c-0.65-0.31-1.23-0.65-1.77-1.02c-0.24-0.17-0.47-0.34-0.69-0.53c-0.23-0.18-0.44-0.37-0.64-0.56c-0.26-0.26-0.51-0.53-0.74-0.8
				c-0.27-0.33-0.52-0.67-0.73-1.03c-0.1-0.18-0.2-0.35-0.29-0.53c-0.2-0.4-0.38-0.81-0.52-1.24c-4.27-11.74,4-33.2,24.8-64.4
				c1.3-1.95,2.64-3.92,4-5.9c1.38-1.99,2.78-3.99,4.22-6.01c1.45-2.02,2.92-4.05,4.43-6.1c3.03-4.11,6.2-8.29,9.5-12.53
				c4.75-6.1,9.79-12.34,15.14-18.72c0.47-0.56,0.93-1.11,1.41-1.67c1.2-1.44,2.43-2.9,3.69-4.36c0.91-1.07,1.84-2.15,2.77-3.23
				c1.09-1.28,2.2-2.56,3.33-3.85c3.37-3.85,6.84-7.76,10.4-11.72c0-0.01,0.01-0.01,0.01-0.01c1.19-1.31,2.39-2.64,3.6-3.97
				c1.22-1.33,2.44-2.66,3.67-4c2.47-2.69,4.99-5.39,7.54-8.12c1.28-1.36,2.57-2.73,3.87-4.1c1.31-1.37,2.62-2.75,3.94-4.14
				c1.46-1.54,2.95-3.08,4.45-4.63c1.2-1.24,2.41-2.49,3.63-3.74c1.05-1.07,2.1-2.13,3.16-3.2c1.06-1.08,2.12-2.15,3.2-3.23
				c1.07-1.07,2.14-2.15,3.23-3.23c1.22-1.22,2.44-2.44,3.68-3.66c1.72-1.7,3.45-3.41,5.19-5.12c14.04-13.81,29-28.02,44.88-42.65
				c2.17-2,4.36-4.01,6.57-6.03c0.73-0.67,1.46-1.34,2.19-2c1.47-1.34,2.95-2.69,4.44-4.04c5.65-5.13,11.41-10.3,17.28-15.52
				c0.07-0.07,0.14-0.13,0.21-0.18v-0.01c5.27-4.7,10.63-9.43,16.08-14.19c0.47-0.42,0.95-0.83,1.42-1.24v-19.85
				c-5.94,5.14-11.77,10.24-17.5,15.29c-39.75,35.02-74.75,67.88-104.78,98.4c-39.38,40.45-70.11,77.11-91.33,108.94
				c-24.4,36.61-32.58,60.57-26.48,77.66c4.62,13.54,18.61,19.6,41.59,18.03l0.29-0.03c19.95-1.76,43.37-8.7,71.57-21.23
				c27.29-12.14,56.78-29.92,87.66-52.87c7.22-5.37,14.37-10.93,21.48-16.67c5.88-4.75,11.71-9.63,17.5-14.64v-13.1
				c2.36-2.17,4.7-4.37,7.04-6.58L1231.08,3027.91L1231.08,3027.91z M1231.08,3027.91c-1.17,1.08-2.35,2.16-3.52,3.22
				c-2.18,1.98-4.36,3.94-6.55,5.88c-0.27,0.24-0.54,0.48-0.81,0.72c-1.09,0.95-2.18,1.91-3.27,2.86c-0.9,0.8-1.8,1.58-2.7,2.35
				c-1.27,1.11-2.55,2.2-3.83,3.29c-1.28,1.09-2.56,2.17-3.85,3.25v0.01c-0.85,0.72-1.71,1.43-2.56,2.14
				c-9.16,7.59-18.46,14.9-27.88,21.91c-30.14,22.4-58.4,39.46-84.8,51.2c-26.4,11.73-48.67,18.4-66.8,20
				c-4.69,0.32-8.77,0.3-12.23-0.06c-0.42-0.04-0.84-0.09-1.25-0.15c-0.07-0.01-0.15-0.02-0.21-0.03c-0.4-0.05-0.78-0.11-1.17-0.18
				c-0.78-0.14-1.52-0.3-2.22-0.48c-0.23-0.05-0.47-0.11-0.69-0.18c-0.23-0.06-0.46-0.13-0.68-0.2c-0.3-0.09-0.6-0.19-0.88-0.3
				c-0.22-0.08-0.44-0.16-0.65-0.25c-0.1-0.04-0.21-0.08-0.31-0.13c-0.25-0.1-0.49-0.21-0.72-0.33c-0.65-0.31-1.23-0.65-1.77-1.02
				c-0.24-0.17-0.47-0.34-0.69-0.53c-0.23-0.18-0.44-0.37-0.64-0.56c-0.26-0.26-0.51-0.53-0.74-0.8c-0.27-0.33-0.52-0.67-0.73-1.03
				c-0.1-0.18-0.2-0.35-0.29-0.53c-0.2-0.4-0.38-0.81-0.52-1.24c-4.27-11.74,4-33.2,24.8-64.4c1.3-1.95,2.64-3.92,4-5.9
				c1.38-1.99,2.78-3.99,4.22-6.01c1.45-2.02,2.92-4.05,4.43-6.1c3.03-4.11,6.2-8.29,9.5-12.53c4.75-6.1,9.79-12.34,15.14-18.72
				c0.47-0.56,0.93-1.11,1.41-1.67c1.2-1.44,2.43-2.9,3.69-4.36c0.91-1.07,1.84-2.15,2.77-3.23c1.09-1.28,2.2-2.56,3.33-3.85
				c3.37-3.85,6.84-7.76,10.4-11.72c0-0.01,0.01-0.01,0.01-0.01c1.19-1.31,2.39-2.64,3.6-3.97c1.22-1.33,2.44-2.66,3.67-4
				c2.47-2.69,4.99-5.39,7.54-8.12c1.28-1.36,2.57-2.73,3.87-4.1c1.31-1.37,2.62-2.75,3.94-4.14c1.46-1.54,2.95-3.08,4.45-4.63
				c1.2-1.24,2.41-2.49,3.63-3.74c1.05-1.07,2.1-2.13,3.16-3.2c1.06-1.08,2.12-2.15,3.2-3.23c1.07-1.07,2.14-2.15,3.23-3.23
				c1.22-1.22,2.44-2.44,3.68-3.66c1.72-1.7,3.45-3.41,5.19-5.12c14.04-13.81,29-28.02,44.88-42.65c2.17-2,4.36-4.01,6.57-6.03
				c0.73-0.67,1.46-1.34,2.19-2c1.47-1.34,2.95-2.69,4.44-4.04c5.65-5.13,11.41-10.3,17.28-15.52c0.07-0.07,0.14-0.13,0.21-0.18
				v-0.01c5.27-4.7,10.63-9.43,16.08-14.19c0.47-0.42,0.95-0.83,1.42-1.24v-19.85c-5.94,5.14-11.77,10.24-17.5,15.29
				c-39.75,35.02-74.75,67.88-104.78,98.4c-39.38,40.45-70.11,77.11-91.33,108.94c-24.4,36.61-32.58,60.57-26.48,77.66
				c4.62,13.54,18.61,19.6,41.59,18.03l0.29-0.03c19.95-1.76,43.37-8.7,71.57-21.23c27.29-12.14,56.78-29.92,87.66-52.87
				c7.22-5.37,14.37-10.93,21.48-16.67c5.88-4.75,11.71-9.63,17.5-14.64v-13.1c2.36-2.17,4.7-4.37,7.04-6.58L1231.08,3027.91
				L1231.08,3027.91z M1231.08,3027.91c-1.17,1.08-2.35,2.16-3.52,3.22c-2.18,1.98-4.36,3.94-6.55,5.88
				c-0.27,0.24-0.54,0.48-0.81,0.72c-1.09,0.95-2.18,1.91-3.27,2.86c-0.9,0.8-1.8,1.58-2.7,2.35c-1.27,1.11-2.55,2.2-3.83,3.29
				c-1.28,1.09-2.56,2.17-3.85,3.25v0.01c-0.85,0.72-1.71,1.43-2.56,2.14c-9.16,7.59-18.46,14.9-27.88,21.91
				c-30.14,22.4-58.4,39.46-84.8,51.2c-26.4,11.73-48.67,18.4-66.8,20c-4.69,0.32-8.77,0.3-12.23-0.06
				c-0.42-0.04-0.84-0.09-1.25-0.15c-0.07-0.01-0.15-0.02-0.21-0.03c-0.4-0.05-0.78-0.11-1.17-0.18c-0.78-0.14-1.52-0.3-2.22-0.48
				c-0.23-0.05-0.47-0.11-0.69-0.18c-0.23-0.06-0.46-0.13-0.68-0.2c-0.3-0.09-0.6-0.19-0.88-0.3c-0.22-0.08-0.44-0.16-0.65-0.25
				c-0.1-0.04-0.21-0.08-0.31-0.13c-0.25-0.1-0.49-0.21-0.72-0.33c-0.65-0.31-1.23-0.65-1.77-1.02c-0.24-0.17-0.47-0.34-0.69-0.53
				c-0.23-0.18-0.44-0.37-0.64-0.56c-0.26-0.26-0.51-0.53-0.74-0.8c-0.27-0.33-0.52-0.67-0.73-1.03c-0.1-0.18-0.2-0.35-0.29-0.53
				c-0.2-0.4-0.38-0.81-0.52-1.24c-4.27-11.74,4-33.2,24.8-64.4c1.3-1.95,2.64-3.92,4-5.9c1.38-1.99,2.78-3.99,4.22-6.01
				c1.45-2.02,2.92-4.05,4.43-6.1c3.03-4.11,6.2-8.29,9.5-12.53c4.75-6.1,9.79-12.34,15.14-18.72c0.47-0.56,0.93-1.11,1.41-1.67
				c1.2-1.44,2.43-2.9,3.69-4.36c0.91-1.07,1.84-2.15,2.77-3.23c1.09-1.28,2.2-2.56,3.33-3.85c3.37-3.85,6.84-7.76,10.4-11.72
				c0-0.01,0.01-0.01,0.01-0.01c1.19-1.31,2.39-2.64,3.6-3.97c1.22-1.33,2.44-2.66,3.67-4c2.47-2.69,4.99-5.39,7.54-8.12
				c1.28-1.36,2.57-2.73,3.87-4.1c1.31-1.37,2.62-2.75,3.94-4.14c1.46-1.54,2.95-3.08,4.45-4.63c1.2-1.24,2.41-2.49,3.63-3.74
				c1.05-1.07,2.1-2.13,3.16-3.2c1.06-1.08,2.12-2.15,3.2-3.23c1.07-1.07,2.14-2.15,3.23-3.23c1.22-1.22,2.44-2.44,3.68-3.66
				c1.72-1.7,3.45-3.41,5.19-5.12c14.04-13.81,29-28.02,44.88-42.65c2.17-2,4.36-4.01,6.57-6.03c0.73-0.67,1.46-1.34,2.19-2
				c1.47-1.34,2.95-2.69,4.44-4.04c5.65-5.13,11.41-10.3,17.28-15.52c0.07-0.07,0.14-0.13,0.21-0.18v-0.01
				c5.27-4.7,10.63-9.43,16.08-14.19c0.47-0.42,0.95-0.83,1.42-1.24v-19.85c-5.94,5.14-11.77,10.24-17.5,15.29
				c-39.75,35.02-74.75,67.88-104.78,98.4c-39.38,40.45-70.11,77.11-91.33,108.94c-24.4,36.61-32.58,60.57-26.48,77.66
				c4.62,13.54,18.61,19.6,41.59,18.03l0.29-0.03c19.95-1.76,43.37-8.7,71.57-21.23c27.29-12.14,56.78-29.92,87.66-52.87
				c7.22-5.37,14.37-10.93,21.48-16.67c5.88-4.75,11.71-9.63,17.5-14.64v-13.1c2.36-2.17,4.7-4.37,7.04-6.58L1231.08,3027.91
				L1231.08,3027.91z M1231.08,3027.91c-1.17,1.08-2.35,2.16-3.52,3.22c-2.18,1.98-4.36,3.94-6.55,5.88
				c-0.27,0.24-0.54,0.48-0.81,0.72c-1.09,0.95-2.18,1.91-3.27,2.86c-0.9,0.8-1.8,1.58-2.7,2.35c-1.27,1.11-2.55,2.2-3.83,3.29
				c-1.28,1.09-2.56,2.17-3.85,3.25v0.01c-0.85,0.72-1.71,1.43-2.56,2.14c-9.16,7.59-18.46,14.9-27.88,21.91
				c-30.14,22.4-58.4,39.46-84.8,51.2c-26.4,11.73-48.67,18.4-66.8,20c-4.69,0.32-8.77,0.3-12.23-0.06
				c-0.42-0.04-0.84-0.09-1.25-0.15c-0.07-0.01-0.15-0.02-0.21-0.03c-0.4-0.05-0.78-0.11-1.17-0.18c-0.78-0.14-1.52-0.3-2.22-0.48
				c-0.23-0.05-0.47-0.11-0.69-0.18c-0.23-0.06-0.46-0.13-0.68-0.2c-0.3-0.09-0.6-0.19-0.88-0.3c-0.22-0.08-0.44-0.16-0.65-0.25
				c-0.1-0.04-0.21-0.08-0.31-0.13c-0.25-0.1-0.49-0.21-0.72-0.33c-0.65-0.31-1.23-0.65-1.77-1.02c-0.24-0.17-0.47-0.34-0.69-0.53
				c-0.23-0.18-0.44-0.37-0.64-0.56c-0.26-0.26-0.51-0.53-0.74-0.8c-0.27-0.33-0.52-0.67-0.73-1.03c-0.1-0.18-0.2-0.35-0.29-0.53
				c-0.2-0.4-0.38-0.81-0.52-1.24c-4.27-11.74,4-33.2,24.8-64.4c1.3-1.95,2.64-3.92,4-5.9c1.38-1.99,2.78-3.99,4.22-6.01
				c1.45-2.02,2.92-4.05,4.43-6.1c3.03-4.11,6.2-8.29,9.5-12.53c4.75-6.1,9.79-12.34,15.14-18.72c0.47-0.56,0.93-1.11,1.41-1.67
				c1.2-1.44,2.43-2.9,3.69-4.36c0.91-1.07,1.84-2.15,2.77-3.23c1.09-1.28,2.2-2.56,3.33-3.85c3.37-3.85,6.84-7.76,10.4-11.72
				c0-0.01,0.01-0.01,0.01-0.01c1.19-1.31,2.39-2.64,3.6-3.97c1.22-1.33,2.44-2.66,3.67-4c2.47-2.69,4.99-5.39,7.54-8.12
				c1.28-1.36,2.57-2.73,3.87-4.1c1.31-1.37,2.62-2.75,3.94-4.14c1.46-1.54,2.95-3.08,4.45-4.63c1.2-1.24,2.41-2.49,3.63-3.74
				c1.05-1.07,2.1-2.13,3.16-3.2c1.06-1.08,2.12-2.15,3.2-3.23c1.07-1.07,2.14-2.15,3.23-3.23c1.22-1.22,2.44-2.44,3.68-3.66
				c1.72-1.7,3.45-3.41,5.19-5.12c14.04-13.81,29-28.02,44.88-42.65c2.17-2,4.36-4.01,6.57-6.03c0.73-0.67,1.46-1.34,2.19-2
				c1.47-1.34,2.95-2.69,4.44-4.04c5.65-5.13,11.41-10.3,17.28-15.52c0.07-0.07,0.14-0.13,0.21-0.18v-0.01
				c5.27-4.7,10.63-9.43,16.08-14.19c0.47-0.42,0.95-0.83,1.42-1.24v-19.85c-5.94,5.14-11.77,10.24-17.5,15.29
				c-39.75,35.02-74.75,67.88-104.78,98.4c-39.38,40.45-70.11,77.11-91.33,108.94c-24.4,36.61-32.58,60.57-26.48,77.66
				c4.62,13.54,18.61,19.6,41.59,18.03l0.29-0.03c19.95-1.76,43.37-8.7,71.57-21.23c27.29-12.14,56.78-29.92,87.66-52.87
				c7.22-5.37,14.37-10.93,21.48-16.67c5.88-4.75,11.71-9.63,17.5-14.64v-13.1c2.36-2.17,4.7-4.37,7.04-6.58L1231.08,3027.91
				L1231.08,3027.91z M1231.08,3027.91c-1.17,1.08-2.35,2.16-3.52,3.22c-2.18,1.98-4.36,3.94-6.55,5.88
				c-0.27,0.24-0.54,0.48-0.81,0.72c-1.09,0.95-2.18,1.91-3.27,2.86c-0.9,0.8-1.8,1.58-2.7,2.35c-1.27,1.11-2.55,2.2-3.83,3.29
				c-1.28,1.09-2.56,2.17-3.85,3.25v0.01c-0.85,0.72-1.71,1.43-2.56,2.14c-9.16,7.59-18.46,14.9-27.88,21.91
				c-30.14,22.4-58.4,39.46-84.8,51.2c-26.4,11.73-48.67,18.4-66.8,20c-4.69,0.32-8.77,0.3-12.23-0.06
				c-0.42-0.04-0.84-0.09-1.25-0.15c-0.07-0.01-0.15-0.02-0.21-0.03c-0.4-0.05-0.78-0.11-1.17-0.18c-0.78-0.14-1.52-0.3-2.22-0.48
				c-0.23-0.05-0.47-0.11-0.69-0.18c-0.23-0.06-0.46-0.13-0.68-0.2c-0.3-0.09-0.6-0.19-0.88-0.3c-0.22-0.08-0.44-0.16-0.65-0.25
				c-0.1-0.04-0.21-0.08-0.31-0.13c-0.25-0.1-0.49-0.21-0.72-0.33c-0.65-0.31-1.23-0.65-1.77-1.02c-0.24-0.17-0.47-0.34-0.69-0.53
				c-0.23-0.18-0.44-0.37-0.64-0.56c-0.26-0.26-0.51-0.53-0.74-0.8c-0.27-0.33-0.52-0.67-0.73-1.03c-0.1-0.18-0.2-0.35-0.29-0.53
				c-0.2-0.4-0.38-0.81-0.52-1.24c-4.27-11.74,4-33.2,24.8-64.4c1.3-1.95,2.64-3.92,4-5.9c1.38-1.99,2.78-3.99,4.22-6.01
				c1.45-2.02,2.92-4.05,4.43-6.1c3.03-4.11,6.2-8.29,9.5-12.53c4.75-6.1,9.79-12.34,15.14-18.72c0.47-0.56,0.93-1.11,1.41-1.67
				c1.2-1.44,2.43-2.9,3.69-4.36c0.91-1.07,1.84-2.15,2.77-3.23c1.09-1.28,2.2-2.56,3.33-3.85c3.37-3.85,6.84-7.76,10.4-11.72
				c0-0.01,0.01-0.01,0.01-0.01c1.19-1.31,2.39-2.64,3.6-3.97c1.22-1.33,2.44-2.66,3.67-4c2.47-2.69,4.99-5.39,7.54-8.12
				c1.28-1.36,2.57-2.73,3.87-4.1c1.31-1.37,2.62-2.75,3.94-4.14c1.46-1.54,2.95-3.08,4.45-4.63c1.2-1.24,2.41-2.49,3.63-3.74
				c1.05-1.07,2.1-2.13,3.16-3.2c1.06-1.08,2.12-2.15,3.2-3.23c1.07-1.07,2.14-2.15,3.23-3.23c1.22-1.22,2.44-2.44,3.68-3.66
				c1.72-1.7,3.45-3.41,5.19-5.12c14.04-13.81,29-28.02,44.88-42.65c2.17-2,4.36-4.01,6.57-6.03c0.73-0.67,1.46-1.34,2.19-2
				c1.47-1.34,2.95-2.69,4.44-4.04c5.65-5.13,11.41-10.3,17.28-15.52c0.07-0.07,0.14-0.13,0.21-0.18v-0.01
				c5.27-4.7,10.63-9.43,16.08-14.19c0.47-0.42,0.95-0.83,1.42-1.24v-19.85c-5.94,5.14-11.77,10.24-17.5,15.29
				c-39.75,35.02-74.75,67.88-104.78,98.4c-39.38,40.45-70.11,77.11-91.33,108.94c-24.4,36.61-32.58,60.57-26.48,77.66
				c4.62,13.54,18.61,19.6,41.59,18.03l0.29-0.03c19.95-1.76,43.37-8.7,71.57-21.23c27.29-12.14,56.78-29.92,87.66-52.87
				c7.22-5.37,14.37-10.93,21.48-16.67c5.88-4.75,11.71-9.63,17.5-14.64v-13.1c2.36-2.17,4.7-4.37,7.04-6.58L1231.08,3027.91
				L1231.08,3027.91z M1231.08,3027.91c-1.17,1.08-2.35,2.16-3.52,3.22c-2.18,1.98-4.36,3.94-6.55,5.88
				c-0.27,0.24-0.54,0.48-0.81,0.72c-1.09,0.95-2.18,1.91-3.27,2.86c-0.9,0.8-1.8,1.58-2.7,2.35c-1.27,1.11-2.55,2.2-3.83,3.29
				c-1.28,1.09-2.56,2.17-3.85,3.25v0.01c-0.85,0.72-1.71,1.43-2.56,2.14c-9.16,7.59-18.46,14.9-27.88,21.91
				c-30.14,22.4-58.4,39.46-84.8,51.2c-26.4,11.73-48.67,18.4-66.8,20c-4.69,0.32-8.77,0.3-12.23-0.06
				c-0.42-0.04-0.84-0.09-1.25-0.15c-0.07-0.01-0.15-0.02-0.21-0.03c-0.4-0.05-0.78-0.11-1.17-0.18c-0.78-0.14-1.52-0.3-2.22-0.48
				c-0.23-0.05-0.47-0.11-0.69-0.18c-0.23-0.06-0.46-0.13-0.68-0.2c-0.3-0.09-0.6-0.19-0.88-0.3c-0.22-0.08-0.44-0.16-0.65-0.25
				c-0.1-0.04-0.21-0.08-0.31-0.13c-0.25-0.1-0.49-0.21-0.72-0.33c-0.65-0.31-1.23-0.65-1.77-1.02c-0.24-0.17-0.47-0.34-0.69-0.53
				c-0.23-0.18-0.44-0.37-0.64-0.56c-0.26-0.26-0.51-0.53-0.74-0.8c-0.27-0.33-0.52-0.67-0.73-1.03c-0.1-0.18-0.2-0.35-0.29-0.53
				c-0.2-0.4-0.38-0.81-0.52-1.24c-4.27-11.74,4-33.2,24.8-64.4c1.3-1.95,2.64-3.92,4-5.9c1.38-1.99,2.78-3.99,4.22-6.01
				c1.45-2.02,2.92-4.05,4.43-6.1c3.03-4.11,6.2-8.29,9.5-12.53c4.75-6.1,9.79-12.34,15.14-18.72c0.47-0.56,0.93-1.11,1.41-1.67
				c1.2-1.44,2.43-2.9,3.69-4.36c0.91-1.07,1.84-2.15,2.77-3.23c1.09-1.28,2.2-2.56,3.33-3.85c3.37-3.85,6.84-7.76,10.4-11.72
				c0-0.01,0.01-0.01,0.01-0.01c1.19-1.31,2.39-2.64,3.6-3.97c1.22-1.33,2.44-2.66,3.67-4c2.47-2.69,4.99-5.39,7.54-8.12
				c1.28-1.36,2.57-2.73,3.87-4.1c1.31-1.37,2.62-2.75,3.94-4.14c1.46-1.54,2.95-3.08,4.45-4.63c1.2-1.24,2.41-2.49,3.63-3.74
				c1.05-1.07,2.1-2.13,3.16-3.2c1.06-1.08,2.12-2.15,3.2-3.23c1.07-1.07,2.14-2.15,3.23-3.23c1.22-1.22,2.44-2.44,3.68-3.66
				c1.72-1.7,3.45-3.41,5.19-5.12c14.04-13.81,29-28.02,44.88-42.65c2.17-2,4.36-4.01,6.57-6.03c0.73-0.67,1.46-1.34,2.19-2
				c1.47-1.34,2.95-2.69,4.44-4.04c5.65-5.13,11.41-10.3,17.28-15.52c0.07-0.07,0.14-0.13,0.21-0.18v-0.01
				c5.27-4.7,10.63-9.43,16.08-14.19c0.47-0.42,0.95-0.83,1.42-1.24v-19.85c-5.94,5.14-11.77,10.24-17.5,15.29
				c-39.75,35.02-74.75,67.88-104.78,98.4c-39.38,40.45-70.11,77.11-91.33,108.94c-24.4,36.61-32.58,60.57-26.48,77.66
				c4.62,13.54,18.61,19.6,41.59,18.03l0.29-0.03c19.95-1.76,43.37-8.7,71.57-21.23c27.29-12.14,56.78-29.92,87.66-52.87
				c7.22-5.37,14.37-10.93,21.48-16.67c5.88-4.75,11.71-9.63,17.5-14.64v-13.1c2.36-2.17,4.7-4.37,7.04-6.58L1231.08,3027.91
				L1231.08,3027.91z M1231.08,3027.91c-1.17,1.08-2.35,2.16-3.52,3.22c-2.18,1.98-4.36,3.94-6.55,5.88
				c-0.27,0.24-0.54,0.48-0.81,0.72c-1.09,0.95-2.18,1.91-3.27,2.86c-0.9,0.8-1.8,1.58-2.7,2.35c-1.27,1.11-2.55,2.2-3.83,3.29
				c-1.28,1.09-2.56,2.17-3.85,3.25v0.01c-0.85,0.72-1.71,1.43-2.56,2.14c-9.16,7.59-18.46,14.9-27.88,21.91
				c-30.14,22.4-58.4,39.46-84.8,51.2c-26.4,11.73-48.67,18.4-66.8,20c-4.69,0.32-8.77,0.3-12.23-0.06
				c-0.42-0.04-0.84-0.09-1.25-0.15c-0.07-0.01-0.15-0.02-0.21-0.03c-0.4-0.05-0.78-0.11-1.17-0.18c-0.78-0.14-1.52-0.3-2.22-0.48
				c-0.23-0.05-0.47-0.11-0.69-0.18c-0.23-0.06-0.46-0.13-0.68-0.2c-0.3-0.09-0.6-0.19-0.88-0.3c-0.22-0.08-0.44-0.16-0.65-0.25
				c-0.1-0.04-0.21-0.08-0.31-0.13c-0.25-0.1-0.49-0.21-0.72-0.33c-0.65-0.31-1.23-0.65-1.77-1.02c-0.24-0.17-0.47-0.34-0.69-0.53
				c-0.23-0.18-0.44-0.37-0.64-0.56c-0.26-0.26-0.51-0.53-0.74-0.8c-0.27-0.33-0.52-0.67-0.73-1.03c-0.1-0.18-0.2-0.35-0.29-0.53
				c-0.2-0.4-0.38-0.81-0.52-1.24c-4.27-11.74,4-33.2,24.8-64.4c1.3-1.95,2.64-3.92,4-5.9c1.38-1.99,2.78-3.99,4.22-6.01
				c1.45-2.02,2.92-4.05,4.43-6.1c3.03-4.11,6.2-8.29,9.5-12.53c4.75-6.1,9.79-12.34,15.14-18.72c0.47-0.56,0.93-1.11,1.41-1.67
				c1.2-1.44,2.43-2.9,3.69-4.36c0.91-1.07,1.84-2.15,2.77-3.23c1.09-1.28,2.2-2.56,3.33-3.85c3.37-3.85,6.84-7.76,10.4-11.72
				c0-0.01,0.01-0.01,0.01-0.01c1.19-1.31,2.39-2.64,3.6-3.97c1.22-1.33,2.44-2.66,3.67-4c2.47-2.69,4.99-5.39,7.54-8.12
				c1.28-1.36,2.57-2.73,3.87-4.1c1.31-1.37,2.62-2.75,3.94-4.14c1.46-1.54,2.95-3.08,4.45-4.63c1.2-1.24,2.41-2.49,3.63-3.74
				c1.05-1.07,2.1-2.13,3.16-3.2c1.06-1.08,2.12-2.15,3.2-3.23c1.07-1.07,2.14-2.15,3.23-3.23c1.22-1.22,2.44-2.44,3.68-3.66
				c1.72-1.7,3.45-3.41,5.19-5.12c14.04-13.81,29-28.02,44.88-42.65c2.17-2,4.36-4.01,6.57-6.03c0.73-0.67,1.46-1.34,2.19-2
				c1.47-1.34,2.95-2.69,4.44-4.04c5.65-5.13,11.41-10.3,17.28-15.52c0.07-0.07,0.14-0.13,0.21-0.18v-0.01
				c5.27-4.7,10.63-9.43,16.08-14.19c0.47-0.42,0.95-0.83,1.42-1.24v-19.85c-5.94,5.14-11.77,10.24-17.5,15.29
				c-39.75,35.02-74.75,67.88-104.78,98.4c-39.38,40.45-70.11,77.11-91.33,108.94c-24.4,36.61-32.58,60.57-26.48,77.66
				c4.62,13.54,18.61,19.6,41.59,18.03l0.29-0.03c19.95-1.76,43.37-8.7,71.57-21.23c27.29-12.14,56.78-29.92,87.66-52.87
				c7.22-5.37,14.37-10.93,21.48-16.67c5.88-4.75,11.71-9.63,17.5-14.64v-13.1c2.36-2.17,4.7-4.37,7.04-6.58L1231.08,3027.91
				L1231.08,3027.91z M1639.72,2520.34c-2.67-3.46-6-5.6-10-6.4c-0.87-0.17-1.74-0.27-2.6-0.28c-3.08-0.03-6.08,1-9,3.08
				c-80.54,57.08-154.4,111.74-221.6,164c-7.47-12.26-16.8-23.86-28-34.8c-11.2-10.92-25.6-22-43.2-33.2
				c-17.6-11.2-33.87-21.06-48.8-29.6c-14.94-8.52-36.27-18.8-64-30.8c-27.74-12-50.14-21.6-67.2-28.8c-17.07-7.2-43.2-18-78.4-32.4
				c-28.27-11.2-49.6-19.72-64-25.6c-62.94-26.12-85.6-66.66-68-121.6c11.73-38.4,41.06-81.32,88-128.8
				c46.93-47.46,104.8-92.8,173.6-136c42.66-27.72,84.66-51.06,126-70c41.33-18.92,78.8-32.4,112.4-40.4c33.6-8,60.26-9.6,80-4.8
				c12.26,2.68,21.73,8.28,28.4,16.8c6.66,8.54,8.4,22.68,5.2,42.4c-0.54,4.28,0.53,8.14,3.2,11.6c2.66,3.48,6.13,5.48,10.4,6
				c2.66,0.54,5.33,0.28,8-0.8c2.66-1.06,4.8-2.66,6.4-4.8c1.6-2.12,2.66-4.52,3.2-7.2c2.13-16.52,1.73-30.8-1.2-42.8
				c-2.94-12-7.87-21.46-14.8-28.4c-6.94-6.92-13.74-12.12-20.4-15.6c-6.67-3.46-14-6-22-7.6c-35.2-8-84.94-0.26-149.2,23.2
				c-64.27,23.48-128,54.94-191.2,94.4c-63.2,39.48-121.47,85.48-174.8,138c-53.34,52.54-86.94,101.2-100.8,146
				c-11.2,35.2-9.34,66.4,5.6,93.6c14.93,27.2,41.6,48.8,80,64.8c14.93,6.4,36.26,15.2,64,26.4c101.33,41.08,175.46,74,222.4,98.8
				c46.93,24.8,78.4,51.88,94.4,81.2c-23.24,18.17-45.5,35.88-66.79,53.13c-5.65,4.58-11.25,9.13-16.76,13.66
				c-1.74,1.41-3.46,2.83-5.18,4.24h-0.01c-18.04,14.82-35.34,29.3-51.9,43.43c-6.11,5.21-12.11,10.37-18.01,15.49h-0.01
				c-2.03,1.76-4.05,3.52-6.06,5.26c-0.15,0.15-0.3,0.28-0.45,0.4c-1.86,1.62-3.7,3.23-5.54,4.84c-2.97,2.61-5.92,5.2-8.84,7.78
				c-0.97,0.86-1.94,1.72-2.91,2.58c-7.75,6.85-15.3,13.63-22.66,20.31c-3.68,3.35-7.31,6.66-10.89,9.96
				c-19.71,18.11-37.96,35.55-54.76,52.31c-2.1,2.1-4.18,4.18-6.23,6.25c-2.06,2.08-4.09,4.14-6.1,6.19
				c-4.01,4.1-7.94,8.16-11.78,12.18c-0.96,1-1.91,2.01-2.86,3.01c-1.89,2-3.77,3.98-5.62,5.96c-1.85,1.98-3.67,3.94-5.48,5.9
				c-0.9,0.97-1.8,1.95-2.69,2.92c-1.78,1.94-3.53,3.88-5.27,5.8c-6.44,7.14-12.54,14.09-18.28,20.85
				c-1.63,1.93-3.24,3.85-4.83,5.75v0.01c-1.58,1.9-3.13,3.78-4.66,5.65v0.01c-1.52,1.87-3.01,3.72-4.49,5.56
				c-0.74,0.93-1.47,1.85-2.18,2.76c-2.87,3.65-5.63,7.23-8.28,10.76v0.01c-1.98,2.65-3.9,5.26-5.76,7.83
				c-1.24,1.72-2.45,3.43-3.63,5.12c-1.17,1.69-2.32,3.36-3.45,5.02c-1.69,2.49-3.31,4.94-4.85,7.37c-1.04,1.61-2.04,3.2-3.02,4.78
				c-2.94,4.75-5.62,9.36-8.03,13.84c-0.8,1.49-1.58,2.96-2.33,4.42c-0.38,0.73-0.74,1.46-1.1,2.19c-0.72,1.44-1.4,2.87-2.07,4.28
				c-0.33,0.7-0.66,1.41-0.97,2.12c-0.63,1.39-1.23,2.78-1.81,4.14c-1.16,2.74-2.19,5.42-3.11,8.04c-0.23,0.66-0.45,1.31-0.67,1.96
				c-4.46,13.35-5.84,25.08-4.16,35.19c0.12,0.69,0.25,1.38,0.39,2.05c0.44,2.03,1,3.99,1.69,5.89c0.65,1.8,1.38,3.52,2.19,5.15
				c7.86,15.77,23.4,23.65,46.6,23.65c2.66,0,5.6-0.27,8.8-0.8c21.86-1.6,47.33-8.8,76.4-21.6c29.06-12.8,59.73-31.2,92-55.2
				c3.04-2.26,6.07-4.56,9.08-6.87c0.72-0.56,1.44-1.12,2.16-1.68v-0.01c5.89-4.58,11.72-9.27,17.5-14.1
				c0.88-0.73,1.76-1.46,2.64-2.2c1.47-1.23,2.93-2.47,4.39-3.72v-0.01h0.01c19.36-16.59,38.11-34.53,56.23-53.81
				c29.06-30.94,54.93-66.94,77.6-108c0.05-0.09,0.1-0.19,0.15-0.28c2.83-5.12,5.54-10.26,8.14-15.42c0.65-1.29,1.29-2.58,1.93-3.87
				c0.96-1.94,1.9-3.88,2.82-5.82c0.31-0.65,0.62-1.3,0.92-1.94c0.61-1.3,1.22-2.59,1.81-3.89c1.19-2.59,2.35-5.19,3.49-7.79
				c1.11-2.55,2.19-5.09,3.26-7.64c0.02-0.06,0.05-0.12,0.07-0.18c1.08-2.62,2.13-5.23,3.16-7.85c1.01-2.57,1.99-5.14,2.95-7.72
				c0.61-1.65,1.21-3.31,1.8-4.97c0.57-1.6,1.13-3.2,1.68-4.81c0.04-0.11,0.08-0.22,0.11-0.33c0.55-1.6,1.09-3.21,1.62-4.82
				c0.24-0.74,0.48-1.47,0.72-2.21c0.3-0.93,0.6-1.86,0.89-2.79c0.84-2.65,1.64-5.3,2.42-7.96c0.44-1.49,0.87-2.99,1.29-4.49
				c0.02-0.07,0.04-0.14,0.06-0.21c0.31-1.07,0.6-2.14,0.89-3.21c0.36-1.33,0.72-2.65,1.06-3.97c0.64-2.43,1.25-4.87,1.84-7.31
				c0.19-0.8,0.38-1.6,0.57-2.4c0.44-1.85,0.86-3.7,1.27-5.56c0.16-0.73,0.32-1.47,0.48-2.21c0.17-0.74,0.32-1.48,0.47-2.21
				c0.32-1.51,0.63-3.03,0.93-4.54c0.73-3.56,1.34-7.09,1.85-10.57c0.2-1.42,0.39-2.83,0.54-4.24c0.11-0.96,0.22-1.92,0.31-2.87
				c0.05-0.48,0.1-0.96,0.14-1.43c0.08-0.81,0.15-1.61,0.2-2.4c0.03-0.33,0.06-0.66,0.07-0.98c0.03-0.29,0.05-0.58,0.06-0.86
				c0.01-0.02,0.01-0.04,0-0.05c0.06-0.94,0.11-1.87,0.15-2.8c0.03-0.35,0.04-0.69,0.05-1.03c0.02-0.35,0.03-0.69,0.03-1.03
				c0.02-0.77,0.04-1.54,0.05-2.3c0.03-1.42,0.03-2.83,0.01-4.22c-0.01-0.64-0.02-1.28-0.04-1.92c-0.01-0.62-0.03-1.23-0.06-1.84
				c-0.01-0.34-0.02-0.68-0.05-1.01c-0.01-0.34-0.02-0.68-0.05-1.02c-0.02-0.5-0.05-0.99-0.09-1.48c-0.03-0.56-0.07-1.11-0.12-1.66
				c-0.02-0.35-0.05-0.7-0.08-1.05c-0.04-0.47-0.08-0.94-0.13-1.41c-0.06-0.63-0.13-1.25-0.2-1.87c-0.02-0.26-0.05-0.52-0.09-0.77
				c-0.04-0.46-0.1-0.91-0.16-1.37c-0.06-0.45-0.12-0.9-0.19-1.35c-0.06-0.48-0.13-0.96-0.2-1.43c-0.06-0.45-0.13-0.9-0.21-1.34
				c-0.07-0.45-0.14-0.89-0.22-1.33c-0.14-0.86-0.3-1.71-0.47-2.57c-0.08-0.47-0.18-0.94-0.28-1.4c-0.03-0.19-0.07-0.38-0.12-0.57
				c-0.03-0.19-0.07-0.38-0.12-0.57c-0.13-0.62-0.27-1.24-0.41-1.85c-0.32-1.38-0.66-2.75-1.03-4.11c-0.15-0.58-0.31-1.16-0.48-1.73
				c-0.16-0.6-0.33-1.2-0.52-1.79c-0.17-0.6-0.35-1.19-0.54-1.78c63.97-49.48,134.26-101.77,210.88-156.86h0.01
				c5.14-3.71,10.31-7.42,15.51-11.14c3.73-2.66,6-6,6.8-10S1642.38,2523.82,1639.72,2520.34z M1518,1948.17l0.38,0.08
				c6.56,1.31,12.62,3.4,18,6.19c5.29,2.76,10.92,7.1,16.73,12.9c4.93,4.94,8.58,12.13,10.84,21.35c2.43,9.99,2.76,22.31,0.98,36.63
				c-0.08,0.27-0.17,0.47-0.28,0.63l-0.7-0.1c-0.06,0-0.11-0.01-0.14-0.02c-0.05-0.05-0.12-0.13-0.22-0.26
				c-0.13-0.17-0.19-0.27-0.2-0.29v-0.12c3.84-24.06,1.15-41.61-8.26-53.67c-8.82-11.26-21.21-18.72-36.84-22.17
				c-22.25-5.36-50.66-3.78-86.84,4.83c-5.47,1.3-11.04,2.74-16.72,4.33C1458.09,1945.9,1492.73,1942.42,1518,1948.17z
				 M1284.33,2605.48c-47.08-24.88-122.37-58.33-223.79-99.45c-27.57-11.13-49-19.97-63.71-26.28l-0.14-0.06
				c-35.01-14.58-59.44-34.15-72.62-58.17c-12.99-23.65-14.45-50.42-4.45-81.83l0.03-0.12c13.06-42.19,45.69-89.21,97-139.74
				c52.28-51.5,110.22-97.24,172.22-135.97c38.05-23.76,76.62-44.72,115.3-62.69c-37.94,18.1-76.81,40.05-115.72,65.33
				c-69.42,43.6-128.71,90.06-176.2,138.1c-48.41,48.97-79.25,94.35-91.65,134.87c-10.04,31.42-8.35,59.48,5.03,83.4
				c12.96,23.18,37.03,42.2,71.62,56.56c14.15,5.77,35.11,14.15,64.08,25.63c34.63,14.17,60.93,25.04,78.16,32.3
				c16.94,7.15,39.51,16.82,67.07,28.75c27.05,11.7,48.09,21.82,62.51,30.05c6.99,4,14.3,8.3,21.87,12.89
				C1288.77,2607.85,1286.57,2606.66,1284.33,2605.48z M1626.99,2529.34c-1.01,0.72-2.02,1.45-3.03,2.17
				c-81.2,58.2-156.5,114.1-223.82,166.17l-8.28,6.4l0.05,0.16l-18.24,14.3c-20.91,16.39-41.07,32.45-60.46,48.19
				c-1.74,1.42-3.48,2.83-5.21,4.24c-5.47,4.45-10.87,8.87-16.21,13.26c-21.22,17.46-41.46,34.49-60.7,51.07
				c-2.36,2.04-4.71,4.07-7.04,6.09c-5.94,5.14-11.77,10.24-17.5,15.29c-39.75,35.02-74.75,67.88-104.78,98.4
				c-39.38,40.45-70.11,77.11-91.33,108.94c-24.4,36.61-32.58,60.57-26.48,77.66c4.62,13.54,18.61,19.6,41.59,18.03l0.29-0.03
				c19.95-1.76,43.37-8.7,71.57-21.23c27.29-12.14,56.78-29.92,87.66-52.87c7.22-5.37,14.37-10.93,21.48-16.67
				c5.88-4.75,11.71-9.63,17.5-14.64c2.36-2.03,4.7-4.08,7.04-6.16c14.43-12.8,28.54-26.35,42.24-40.57
				c28.22-29.33,53.89-64.55,76.29-104.69c21.43-38.43,36.86-78.31,45.88-118.62c0.46-2.01,0.89-4.03,1.31-6.04l0.02-0.11
				c0.48-2.39,0.9-4.76,1.26-7.11c0.22-1.42,0.41-2.83,0.58-4.24c1.69-13.71,1.36-26.87-1.02-39.22l-2.5-13.04
				c4.96,15.89,6.25,33.41,3.84,52.26c-0.18,1.4-0.38,2.82-0.6,4.24c-0.4,2.53-0.86,5.08-1.38,7.66c-0.37,1.87-0.75,3.73-1.16,5.6
				c-8.42,39.56-23.23,78.71-44.06,116.46c-21.97,39.79-47.34,75.11-75.4,104.98c-14.63,15.56-29.77,30.3-45.3,44.14
				c-2.34,2.08-4.68,4.15-7.04,6.19c-5.78,5.01-11.62,9.9-17.5,14.64c-6.67,5.4-13.41,10.62-20.18,15.66
				c-31.23,23.23-61.21,41.23-89.09,53.51c-27.37,12.05-51.41,18.9-71.45,20.37l-0.67,0.05l-0.67,0.11c-2.43,0.4-4.58,0.6-6.37,0.6
				c-24.71,0-31.52-10.09-34.71-18.95c-13.32-36.46,46.06-109.88,82.65-150.4c36.37-40.3,83.58-86.02,140.49-136.1
				c5.36-4.72,10.81-9.47,16.35-14.27c0.38-0.33,0.76-0.66,1.15-0.99c2.32-2.02,4.67-4.04,7.04-6.07
				c18.74-16.13,38.62-32.84,59.4-49.93c5.34-4.4,10.74-8.82,16.2-13.26c1.73-1.41,3.46-2.82,5.21-4.24c0.82-0.66,1.65-1.33,2.47-2
				c21.13-17.13,43.54-34.95,66.59-52.97l10.02-7.84l-6.09-11.16c-10.72-19.66-27.73-38.37-50.79-55.95
				c9.26,6.71,17.27,13.36,23.94,19.86c10.23,9.99,18.87,20.72,25.67,31.88l8.75,14.35l13.27-10.32
				c65.92-51.26,139.35-105.64,218.34-161.67c0.92-0.66,1.84-1.31,2.77-1.97c0.11-0.07,0.2-0.13,0.27-0.17
				c0.09,0.05,0.19,0.12,0.31,0.24C1627.31,2529.11,1627.16,2529.22,1626.99,2529.34z M1383.31,2768.26
				c-0.12,0.9-0.27,1.8-0.42,2.71c-0.23,1.38-0.49,2.77-0.77,4.17c-0.27,1.29-0.54,2.57-0.83,3.85c-0.18,0.85-0.37,1.71-0.57,2.55
				c-0.13,0.59-0.26,1.18-0.4,1.77c-0.07,0.31-0.14,0.61-0.21,0.92c-0.19,0.81-0.38,1.62-0.58,2.43c-0.6,2.54-1.23,5.07-1.89,7.59
				c-0.04,0.13-0.07,0.25-0.1,0.38c-0.3,1.17-0.62,2.34-0.94,3.51c-0.34,1.27-0.69,2.54-1.05,3.81c-0.71,2.54-1.45,5.08-2.23,7.62
				c-0.38,1.26-0.77,2.53-1.17,3.79c-0.39,1.27-0.79,2.54-1.21,3.8c-0.4,1.26-0.82,2.52-1.25,3.78c-0.42,1.27-0.85,2.53-1.29,3.79
				c-0.87,2.52-1.76,5.03-2.69,7.54c-0.46,1.26-0.93,2.51-1.41,3.77c-0.46,1.26-0.94,2.51-1.44,3.76c-0.48,1.25-0.98,2.51-1.49,3.76
				c-0.99,2.5-2.02,5-3.08,7.49c-0.52,1.25-1.05,2.49-1.6,3.74c-0.53,1.24-1.08,2.48-1.64,3.73c-0.54,1.24-1.1,2.48-1.68,3.72
				c-0.56,1.25-1.14,2.49-1.72,3.73c-0.57,1.24-1.15,2.47-1.75,3.71c-1.18,2.48-2.39,4.95-3.63,7.42c-0.62,1.23-1.24,2.46-1.88,3.7
				c-0.62,1.23-1.26,2.46-1.91,3.69c-0.77,1.48-1.56,2.97-2.36,4.45c-0.48,0.9-0.97,1.8-1.45,2.69c-0.26,0.46-0.51,0.92-0.77,1.38
				c-0.01,0.04-0.03,0.08-0.05,0.11c-0.03,0.07-0.07,0.14-0.11,0.21c-0.4,0.74-0.81,1.47-1.22,2.21c-0.38,0.68-0.76,1.37-1.16,2.04
				c-0.05,0.1-0.11,0.2-0.17,0.3c-0.69,1.22-1.37,2.43-2.06,3.64c-0.09,0.15-0.17,0.3-0.26,0.45c-0.73,1.28-1.47,2.55-2.21,3.81
				c-1.52,2.61-3.06,5.19-4.6,7.75c-1.43,2.34-2.86,4.67-4.3,6.97c-1.44,2.3-2.89,4.59-4.36,6.85c-1.46,2.26-2.94,4.51-4.43,6.73
				c-1.85,2.75-3.71,5.47-5.59,8.16c-0.61,0.88-1.23,1.76-1.85,2.63c-1.19,1.69-2.39,3.36-3.6,5.02c-0.66,0.91-1.32,1.82-1.99,2.72
				c-0.58,0.8-1.18,1.59-1.77,2.38c-0.59,0.79-1.18,1.58-1.77,2.36c0,0.01-0.01,0.02-0.02,0.03c-0.58,0.78-1.18,1.56-1.78,2.34
				c-0.98,1.28-1.96,2.54-2.95,3.8c-1.27,1.63-2.56,3.25-3.85,4.85c-0.43,0.54-0.86,1.07-1.29,1.6c-4.29,5.27-8.65,10.4-13.09,15.38
				c-0.59,0.67-1.19,1.34-1.79,2c-1.02,1.13-2.04,2.25-3.06,3.36c-0.72,0.78-1.44,1.55-2.16,2.32c-0.75,0.8-1.5,1.6-2.25,2.39
				c-0.05,0.04-0.08,0.08-0.12,0.12c-0.5,0.54-1.01,1.07-1.52,1.6c-1.29,1.34-2.58,2.67-3.88,3.99c-1.28,1.32-2.58,2.64-3.88,3.94
				c-1.3,1.31-2.6,2.61-3.91,3.91c-2.29,2.28-4.59,4.53-6.89,6.76c-4.26,4.12-8.55,8.18-12.87,12.17h-0.01
				c-1.17,1.08-2.35,2.16-3.52,3.22c-2.18,1.98-4.36,3.94-6.55,5.88c-0.27,0.24-0.54,0.48-0.81,0.72c-1.09,0.95-2.18,1.91-3.27,2.86
				c-0.9,0.8-1.8,1.58-2.7,2.35c-1.27,1.11-2.55,2.2-3.83,3.29c-1.28,1.09-2.56,2.17-3.85,3.25v0.01c-0.85,0.72-1.71,1.43-2.56,2.14
				c-9.16,7.59-18.46,14.9-27.88,21.91c-30.14,22.4-58.4,39.46-84.8,51.2c-26.4,11.73-48.67,18.4-66.8,20
				c-4.69,0.32-8.77,0.3-12.23-0.06c-0.42-0.04-0.84-0.09-1.25-0.15c-0.07-0.01-0.15-0.02-0.21-0.03c-0.4-0.05-0.78-0.11-1.17-0.18
				c-0.78-0.14-1.52-0.3-2.22-0.48c-0.23-0.05-0.47-0.11-0.69-0.18c-0.23-0.06-0.46-0.13-0.68-0.2c-0.3-0.09-0.6-0.19-0.88-0.3
				c-0.22-0.08-0.44-0.16-0.65-0.25c-0.1-0.04-0.21-0.08-0.31-0.13c-0.25-0.1-0.49-0.21-0.72-0.33c-0.65-0.31-1.23-0.65-1.77-1.02
				c-0.24-0.17-0.47-0.34-0.69-0.53c-0.23-0.18-0.44-0.37-0.64-0.56c-0.26-0.26-0.51-0.53-0.74-0.8c-0.27-0.33-0.52-0.67-0.73-1.03
				c-0.1-0.18-0.2-0.35-0.29-0.53c-0.2-0.4-0.38-0.81-0.52-1.24c-4.27-11.74,4-33.2,24.8-64.4c1.3-1.95,2.64-3.92,4-5.9
				c1.38-1.99,2.78-3.99,4.22-6.01c1.45-2.02,2.92-4.05,4.43-6.1c3.03-4.11,6.2-8.29,9.5-12.53c4.75-6.1,9.79-12.34,15.14-18.72
				c0.47-0.56,0.93-1.11,1.41-1.67c1.2-1.44,2.43-2.9,3.69-4.36c0.91-1.07,1.84-2.15,2.77-3.23c1.09-1.28,2.2-2.56,3.33-3.85
				c3.37-3.85,6.84-7.76,10.4-11.72c0-0.01,0.01-0.01,0.01-0.01c1.19-1.31,2.39-2.64,3.6-3.97c1.22-1.33,2.44-2.66,3.67-4
				c2.47-2.69,4.99-5.39,7.54-8.12c1.28-1.36,2.57-2.73,3.87-4.1c1.31-1.37,2.62-2.75,3.94-4.14c1.46-1.54,2.95-3.08,4.45-4.63
				c1.2-1.24,2.41-2.49,3.63-3.74c1.05-1.07,2.1-2.13,3.16-3.2c1.06-1.08,2.12-2.15,3.2-3.23c1.07-1.07,2.14-2.15,3.23-3.23
				c1.22-1.22,2.44-2.44,3.68-3.66c1.72-1.7,3.45-3.41,5.19-5.12c14.04-13.81,29-28.02,44.88-42.65c2.17-2,4.36-4.01,6.57-6.03
				c0.73-0.67,1.46-1.34,2.19-2c1.47-1.34,2.95-2.69,4.44-4.04c5.65-5.13,11.41-10.3,17.28-15.52c0.07-0.07,0.14-0.13,0.21-0.18
				v-0.01c5.27-4.7,10.63-9.43,16.08-14.19c0.47-0.42,0.95-0.83,1.42-1.24v-0.01c0.93-0.81,1.86-1.63,2.79-2.43
				c1.41-1.23,2.82-2.46,4.24-3.69v-0.01h0.01c0.96-0.83,1.93-1.67,2.89-2.51c2.12-1.84,4.25-3.68,6.4-5.53
				c2.14-1.85,4.3-3.71,6.47-5.57c2.17-1.86,4.36-3.73,6.56-5.6c3.11-2.65,6.24-5.31,9.4-7.99c3.41-2.88,6.85-5.78,10.32-8.69
				c13.64-11.45,27.74-23.11,42.31-34.98h0.01c1.35-1.1,2.7-2.2,4.05-3.3c4.06-3.3,8.16-6.62,12.3-9.96h0.01
				c1.74-1.41,3.49-2.82,5.25-4.24h0.01c0.31-0.26,0.62-0.5,0.93-0.76c8.31-6.67,16.76-13.41,25.35-20.21
				c2.14-1.7,4.3-3.41,6.47-5.12c1.74-1.38,3.49-2.76,5.25-4.14c1.51-1.19,3.03-2.38,4.55-3.57c1.1-0.86,2.19-1.72,3.29-2.58v-0.01
				h0.01c0.15,0.78,0.29,1.57,0.42,2.36c-0.01,0.01-0.01,0.02,0,0.03c0.27,1.59,0.5,3.19,0.68,4.81c0.19,1.62,0.35,3.25,0.45,4.9
				c0.07,0.82,0.11,1.64,0.15,2.47c0.11,2.49,0.14,5,0.08,7.55c-0.03,1.72-0.11,3.45-0.23,5.19c-0.05,0.87-0.12,1.74-0.2,2.62
				c-0.09,0.99-0.19,1.99-0.3,2.99c-0.07,0.68-0.15,1.38-0.25,2.07c-0.01,0.09-0.02,0.18-0.03,0.27c-0.05,0.38-0.1,0.75-0.15,1.13
				C1383.47,2767.24,1383.4,2767.75,1383.31,2768.26z M1231.08,3027.91c-1.17,1.08-2.35,2.16-3.52,3.22
				c-2.18,1.98-4.36,3.94-6.55,5.88c-0.27,0.24-0.54,0.48-0.81,0.72c-1.09,0.95-2.18,1.91-3.27,2.86c-0.9,0.8-1.8,1.58-2.7,2.35
				c-1.27,1.11-2.55,2.2-3.83,3.29c-1.28,1.09-2.56,2.17-3.85,3.25v0.01c-0.85,0.72-1.71,1.43-2.56,2.14
				c-9.16,7.59-18.46,14.9-27.88,21.91c-30.14,22.4-58.4,39.46-84.8,51.2c-26.4,11.73-48.67,18.4-66.8,20
				c-4.69,0.32-8.77,0.3-12.23-0.06c-0.42-0.04-0.84-0.09-1.25-0.15c-0.07-0.01-0.15-0.02-0.21-0.03c-0.4-0.05-0.78-0.11-1.17-0.18
				c-0.78-0.14-1.52-0.3-2.22-0.48c-0.23-0.05-0.47-0.11-0.69-0.18c-0.23-0.06-0.46-0.13-0.68-0.2c-0.3-0.09-0.6-0.19-0.88-0.3
				c-0.22-0.08-0.44-0.16-0.65-0.25c-0.1-0.04-0.21-0.08-0.31-0.13c-0.25-0.1-0.49-0.21-0.72-0.33c-0.65-0.31-1.23-0.65-1.77-1.02
				c-0.24-0.17-0.47-0.34-0.69-0.53c-0.23-0.18-0.44-0.37-0.64-0.56c-0.26-0.26-0.51-0.53-0.74-0.8c-0.27-0.33-0.52-0.67-0.73-1.03
				c-0.1-0.18-0.2-0.35-0.29-0.53c-0.2-0.4-0.38-0.81-0.52-1.24c-4.27-11.74,4-33.2,24.8-64.4c1.3-1.95,2.64-3.92,4-5.9
				c1.38-1.99,2.78-3.99,4.22-6.01c1.45-2.02,2.92-4.05,4.43-6.1c3.03-4.11,6.2-8.29,9.5-12.53c4.75-6.1,9.79-12.34,15.14-18.72
				c0.47-0.56,0.93-1.11,1.41-1.67c1.2-1.44,2.43-2.9,3.69-4.36c0.91-1.07,1.84-2.15,2.77-3.23c1.09-1.28,2.2-2.56,3.33-3.85
				c3.37-3.85,6.84-7.76,10.4-11.72c0-0.01,0.01-0.01,0.01-0.01c1.19-1.31,2.39-2.64,3.6-3.97c1.22-1.33,2.44-2.66,3.67-4
				c2.47-2.69,4.99-5.39,7.54-8.12c1.28-1.36,2.57-2.73,3.87-4.1c1.31-1.37,2.62-2.75,3.94-4.14c1.46-1.54,2.95-3.08,4.45-4.63
				c1.2-1.24,2.41-2.49,3.63-3.74c1.05-1.07,2.1-2.13,3.16-3.2c1.06-1.08,2.12-2.15,3.2-3.23c1.07-1.07,2.14-2.15,3.23-3.23
				c1.22-1.22,2.44-2.44,3.68-3.66c1.72-1.7,3.45-3.41,5.19-5.12c14.04-13.81,29-28.02,44.88-42.65c2.17-2,4.36-4.01,6.57-6.03
				c0.73-0.67,1.46-1.34,2.19-2c1.47-1.34,2.95-2.69,4.44-4.04c5.65-5.13,11.41-10.3,17.28-15.52c0.07-0.07,0.14-0.13,0.21-0.18
				v-0.01c5.27-4.7,10.63-9.43,16.08-14.19c0.47-0.42,0.95-0.83,1.42-1.24v-19.85c-5.94,5.14-11.77,10.24-17.5,15.29
				c-39.75,35.02-74.75,67.88-104.78,98.4c-39.38,40.45-70.11,77.11-91.33,108.94c-24.4,36.61-32.58,60.57-26.48,77.66
				c4.62,13.54,18.61,19.6,41.59,18.03l0.29-0.03c19.95-1.76,43.37-8.7,71.57-21.23c27.29-12.14,56.78-29.92,87.66-52.87
				c7.22-5.37,14.37-10.93,21.48-16.67c5.88-4.75,11.71-9.63,17.5-14.64v-13.1c2.36-2.17,4.7-4.37,7.04-6.58L1231.08,3027.91
				L1231.08,3027.91z M1231.08,3027.91c-1.17,1.08-2.35,2.16-3.52,3.22c-2.18,1.98-4.36,3.94-6.55,5.88
				c-0.27,0.24-0.54,0.48-0.81,0.72c-1.09,0.95-2.18,1.91-3.27,2.86c-0.9,0.8-1.8,1.58-2.7,2.35c-1.27,1.11-2.55,2.2-3.83,3.29
				c-1.28,1.09-2.56,2.17-3.85,3.25v0.01c-0.85,0.72-1.71,1.43-2.56,2.14c-9.16,7.59-18.46,14.9-27.88,21.91
				c-30.14,22.4-58.4,39.46-84.8,51.2c-26.4,11.73-48.67,18.4-66.8,20c-4.69,0.32-8.77,0.3-12.23-0.06
				c-0.42-0.04-0.84-0.09-1.25-0.15c-0.07-0.01-0.15-0.02-0.21-0.03c-0.4-0.05-0.78-0.11-1.17-0.18c-0.78-0.14-1.52-0.3-2.22-0.48
				c-0.23-0.05-0.47-0.11-0.69-0.18c-0.23-0.06-0.46-0.13-0.68-0.2c-0.3-0.09-0.6-0.19-0.88-0.3c-0.22-0.08-0.44-0.16-0.65-0.25
				c-0.1-0.04-0.21-0.08-0.31-0.13c-0.25-0.1-0.49-0.21-0.72-0.33c-0.65-0.31-1.23-0.65-1.77-1.02c-0.24-0.17-0.47-0.34-0.69-0.53
				c-0.23-0.18-0.44-0.37-0.64-0.56c-0.26-0.26-0.51-0.53-0.74-0.8c-0.27-0.33-0.52-0.67-0.73-1.03c-0.1-0.18-0.2-0.35-0.29-0.53
				c-0.2-0.4-0.38-0.81-0.52-1.24c-4.27-11.74,4-33.2,24.8-64.4c1.3-1.95,2.64-3.92,4-5.9c1.38-1.99,2.78-3.99,4.22-6.01
				c1.45-2.02,2.92-4.05,4.43-6.1c3.03-4.11,6.2-8.29,9.5-12.53c4.75-6.1,9.79-12.34,15.14-18.72c0.47-0.56,0.93-1.11,1.41-1.67
				c1.2-1.44,2.43-2.9,3.69-4.36c0.91-1.07,1.84-2.15,2.77-3.23c1.09-1.28,2.2-2.56,3.33-3.85c3.37-3.85,6.84-7.76,10.4-11.72
				c0-0.01,0.01-0.01,0.01-0.01c1.19-1.31,2.39-2.64,3.6-3.97c1.22-1.33,2.44-2.66,3.67-4c2.47-2.69,4.99-5.39,7.54-8.12
				c1.28-1.36,2.57-2.73,3.87-4.1c1.31-1.37,2.62-2.75,3.94-4.14c1.46-1.54,2.95-3.08,4.45-4.63c1.2-1.24,2.41-2.49,3.63-3.74
				c1.05-1.07,2.1-2.13,3.16-3.2c1.06-1.08,2.12-2.15,3.2-3.23c1.07-1.07,2.14-2.15,3.23-3.23c1.22-1.22,2.44-2.44,3.68-3.66
				c1.72-1.7,3.45-3.41,5.19-5.12c14.04-13.81,29-28.02,44.88-42.65c2.17-2,4.36-4.01,6.57-6.03c0.73-0.67,1.46-1.34,2.19-2
				c1.47-1.34,2.95-2.69,4.44-4.04c5.65-5.13,11.41-10.3,17.28-15.52c0.07-0.07,0.14-0.13,0.21-0.18v-0.01
				c5.27-4.7,10.63-9.43,16.08-14.19c0.47-0.42,0.95-0.83,1.42-1.24v-19.85c-5.94,5.14-11.77,10.24-17.5,15.29
				c-39.75,35.02-74.75,67.88-104.78,98.4c-39.38,40.45-70.11,77.11-91.33,108.94c-24.4,36.61-32.58,60.57-26.48,77.66
				c4.62,13.54,18.61,19.6,41.59,18.03l0.29-0.03c19.95-1.76,43.37-8.7,71.57-21.23c27.29-12.14,56.78-29.92,87.66-52.87
				c7.22-5.37,14.37-10.93,21.48-16.67c5.88-4.75,11.71-9.63,17.5-14.64v-13.1c2.36-2.17,4.7-4.37,7.04-6.58L1231.08,3027.91
				L1231.08,3027.91z M1231.08,3027.91c-1.17,1.08-2.35,2.16-3.52,3.22c-2.18,1.98-4.36,3.94-6.55,5.88
				c-0.27,0.24-0.54,0.48-0.81,0.72c-1.09,0.95-2.18,1.91-3.27,2.86c-0.9,0.8-1.8,1.58-2.7,2.35c-1.27,1.11-2.55,2.2-3.83,3.29
				c-1.28,1.09-2.56,2.17-3.85,3.25v0.01c-0.85,0.72-1.71,1.43-2.56,2.14c-9.16,7.59-18.46,14.9-27.88,21.91
				c-30.14,22.4-58.4,39.46-84.8,51.2c-26.4,11.73-48.67,18.4-66.8,20c-4.69,0.32-8.77,0.3-12.23-0.06
				c-0.42-0.04-0.84-0.09-1.25-0.15c-0.07-0.01-0.15-0.02-0.21-0.03c-0.4-0.05-0.78-0.11-1.17-0.18c-0.78-0.14-1.52-0.3-2.22-0.48
				c-0.23-0.05-0.47-0.11-0.69-0.18c-0.23-0.06-0.46-0.13-0.68-0.2c-0.3-0.09-0.6-0.19-0.88-0.3c-0.22-0.08-0.44-0.16-0.65-0.25
				c-0.1-0.04-0.21-0.08-0.31-0.13c-0.25-0.1-0.49-0.21-0.72-0.33c-0.65-0.31-1.23-0.65-1.77-1.02c-0.24-0.17-0.47-0.34-0.69-0.53
				c-0.23-0.18-0.44-0.37-0.64-0.56c-0.26-0.26-0.51-0.53-0.74-0.8c-0.27-0.33-0.52-0.67-0.73-1.03c-0.1-0.18-0.2-0.35-0.29-0.53
				c-0.2-0.4-0.38-0.81-0.52-1.24c-4.27-11.74,4-33.2,24.8-64.4c1.3-1.95,2.64-3.92,4-5.9c1.38-1.99,2.78-3.99,4.22-6.01
				c1.45-2.02,2.92-4.05,4.43-6.1c3.03-4.11,6.2-8.29,9.5-12.53c4.75-6.1,9.79-12.34,15.14-18.72c0.47-0.56,0.93-1.11,1.41-1.67
				c1.2-1.44,2.43-2.9,3.69-4.36c0.91-1.07,1.84-2.15,2.77-3.23c1.09-1.28,2.2-2.56,3.33-3.85c3.37-3.85,6.84-7.76,10.4-11.72
				c0-0.01,0.01-0.01,0.01-0.01c1.19-1.31,2.39-2.64,3.6-3.97c1.22-1.33,2.44-2.66,3.67-4c2.47-2.69,4.99-5.39,7.54-8.12
				c1.28-1.36,2.57-2.73,3.87-4.1c1.31-1.37,2.62-2.75,3.94-4.14c1.46-1.54,2.95-3.08,4.45-4.63c1.2-1.24,2.41-2.49,3.63-3.74
				c1.05-1.07,2.1-2.13,3.16-3.2c1.06-1.08,2.12-2.15,3.2-3.23c1.07-1.07,2.14-2.15,3.23-3.23c1.22-1.22,2.44-2.44,3.68-3.66
				c1.72-1.7,3.45-3.41,5.19-5.12c14.04-13.81,29-28.02,44.88-42.65c2.17-2,4.36-4.01,6.57-6.03c0.73-0.67,1.46-1.34,2.19-2
				c1.47-1.34,2.95-2.69,4.44-4.04c5.65-5.13,11.41-10.3,17.28-15.52c0.07-0.07,0.14-0.13,0.21-0.18v-0.01
				c5.27-4.7,10.63-9.43,16.08-14.19c0.47-0.42,0.95-0.83,1.42-1.24v-19.85c-5.94,5.14-11.77,10.24-17.5,15.29
				c-39.75,35.02-74.75,67.88-104.78,98.4c-39.38,40.45-70.11,77.11-91.33,108.94c-24.4,36.61-32.58,60.57-26.48,77.66
				c4.62,13.54,18.61,19.6,41.59,18.03l0.29-0.03c19.95-1.76,43.37-8.7,71.57-21.23c27.29-12.14,56.78-29.92,87.66-52.87
				c7.22-5.37,14.37-10.93,21.48-16.67c5.88-4.75,11.71-9.63,17.5-14.64v-13.1c2.36-2.17,4.7-4.37,7.04-6.58L1231.08,3027.91
				L1231.08,3027.91z M1231.08,3027.91c-1.17,1.08-2.35,2.16-3.52,3.22c-2.18,1.98-4.36,3.94-6.55,5.88
				c-0.27,0.24-0.54,0.48-0.81,0.72c-1.09,0.95-2.18,1.91-3.27,2.86c-0.9,0.8-1.8,1.58-2.7,2.35c-1.27,1.11-2.55,2.2-3.83,3.29
				c-1.28,1.09-2.56,2.17-3.85,3.25v0.01c-0.85,0.72-1.71,1.43-2.56,2.14c-9.16,7.59-18.46,14.9-27.88,21.91
				c-30.14,22.4-58.4,39.46-84.8,51.2c-26.4,11.73-48.67,18.4-66.8,20c-4.69,0.32-8.77,0.3-12.23-0.06
				c-0.42-0.04-0.84-0.09-1.25-0.15c-0.07-0.01-0.15-0.02-0.21-0.03c-0.4-0.05-0.78-0.11-1.17-0.18c-0.78-0.14-1.52-0.3-2.22-0.48
				c-0.23-0.05-0.47-0.11-0.69-0.18c-0.23-0.06-0.46-0.13-0.68-0.2c-0.3-0.09-0.6-0.19-0.88-0.3c-0.22-0.08-0.44-0.16-0.65-0.25
				c-0.1-0.04-0.21-0.08-0.31-0.13c-0.25-0.1-0.49-0.21-0.72-0.33c-0.65-0.31-1.23-0.65-1.77-1.02c-0.24-0.17-0.47-0.34-0.69-0.53
				c-0.23-0.18-0.44-0.37-0.64-0.56c-0.26-0.26-0.51-0.53-0.74-0.8c-0.27-0.33-0.52-0.67-0.73-1.03c-0.1-0.18-0.2-0.35-0.29-0.53
				c-0.2-0.4-0.38-0.81-0.52-1.24c-4.27-11.74,4-33.2,24.8-64.4c1.3-1.95,2.64-3.92,4-5.9c1.38-1.99,2.78-3.99,4.22-6.01
				c1.45-2.02,2.92-4.05,4.43-6.1c3.03-4.11,6.2-8.29,9.5-12.53c4.75-6.1,9.79-12.34,15.14-18.72c0.47-0.56,0.93-1.11,1.41-1.67
				c1.2-1.44,2.43-2.9,3.69-4.36c0.91-1.07,1.84-2.15,2.77-3.23c1.09-1.28,2.2-2.56,3.33-3.85c3.37-3.85,6.84-7.76,10.4-11.72
				c0-0.01,0.01-0.01,0.01-0.01c1.19-1.31,2.39-2.64,3.6-3.97c1.22-1.33,2.44-2.66,3.67-4c2.47-2.69,4.99-5.39,7.54-8.12
				c1.28-1.36,2.57-2.73,3.87-4.1c1.31-1.37,2.62-2.75,3.94-4.14c1.46-1.54,2.95-3.08,4.45-4.63c1.2-1.24,2.41-2.49,3.63-3.74
				c1.05-1.07,2.1-2.13,3.16-3.2c1.06-1.08,2.12-2.15,3.2-3.23c1.07-1.07,2.14-2.15,3.23-3.23c1.22-1.22,2.44-2.44,3.68-3.66
				c1.72-1.7,3.45-3.41,5.19-5.12c14.04-13.81,29-28.02,44.88-42.65c2.17-2,4.36-4.01,6.57-6.03c0.73-0.67,1.46-1.34,2.19-2
				c1.47-1.34,2.95-2.69,4.44-4.04c5.65-5.13,11.41-10.3,17.28-15.52c0.07-0.07,0.14-0.13,0.21-0.18v-0.01
				c5.27-4.7,10.63-9.43,16.08-14.19c0.47-0.42,0.95-0.83,1.42-1.24v-19.85c-5.94,5.14-11.77,10.24-17.5,15.29
				c-39.75,35.02-74.75,67.88-104.78,98.4c-39.38,40.45-70.11,77.11-91.33,108.94c-24.4,36.61-32.58,60.57-26.48,77.66
				c4.62,13.54,18.61,19.6,41.59,18.03l0.29-0.03c19.95-1.76,43.37-8.7,71.57-21.23c27.29-12.14,56.78-29.92,87.66-52.87
				c7.22-5.37,14.37-10.93,21.48-16.67c5.88-4.75,11.71-9.63,17.5-14.64v-13.1c2.36-2.17,4.7-4.37,7.04-6.58L1231.08,3027.91
				L1231.08,3027.91z M1231.08,3027.91c-1.17,1.08-2.35,2.16-3.52,3.22c-2.18,1.98-4.36,3.94-6.55,5.88
				c-0.27,0.24-0.54,0.48-0.81,0.72c-1.09,0.95-2.18,1.91-3.27,2.86c-0.9,0.8-1.8,1.58-2.7,2.35c-1.27,1.11-2.55,2.2-3.83,3.29
				c-1.28,1.09-2.56,2.17-3.85,3.25v0.01c-0.85,0.72-1.71,1.43-2.56,2.14c-9.16,7.59-18.46,14.9-27.88,21.91
				c-30.14,22.4-58.4,39.46-84.8,51.2c-26.4,11.73-48.67,18.4-66.8,20c-4.69,0.32-8.77,0.3-12.23-0.06
				c-0.42-0.04-0.84-0.09-1.25-0.15c-0.07-0.01-0.15-0.02-0.21-0.03c-0.4-0.05-0.78-0.11-1.17-0.18c-0.78-0.14-1.52-0.3-2.22-0.48
				c-0.23-0.05-0.47-0.11-0.69-0.18c-0.23-0.06-0.46-0.13-0.68-0.2c-0.3-0.09-0.6-0.19-0.88-0.3c-0.22-0.08-0.44-0.16-0.65-0.25
				c-0.1-0.04-0.21-0.08-0.31-0.13c-0.25-0.1-0.49-0.21-0.72-0.33c-0.65-0.31-1.23-0.65-1.77-1.02c-0.24-0.17-0.47-0.34-0.69-0.53
				c-0.23-0.18-0.44-0.37-0.64-0.56c-0.26-0.26-0.51-0.53-0.74-0.8c-0.27-0.33-0.52-0.67-0.73-1.03c-0.1-0.18-0.2-0.35-0.29-0.53
				c-0.2-0.4-0.38-0.81-0.52-1.24c-4.27-11.74,4-33.2,24.8-64.4c1.3-1.95,2.64-3.92,4-5.9c1.38-1.99,2.78-3.99,4.22-6.01
				c1.45-2.02,2.92-4.05,4.43-6.1c3.03-4.11,6.2-8.29,9.5-12.53c4.75-6.1,9.79-12.34,15.14-18.72c0.47-0.56,0.93-1.11,1.41-1.67
				c1.2-1.44,2.43-2.9,3.69-4.36c0.91-1.07,1.84-2.15,2.77-3.23c1.09-1.28,2.2-2.56,3.33-3.85c3.37-3.85,6.84-7.76,10.4-11.72
				c0-0.01,0.01-0.01,0.01-0.01c1.19-1.31,2.39-2.64,3.6-3.97c1.22-1.33,2.44-2.66,3.67-4c2.47-2.69,4.99-5.39,7.54-8.12
				c1.28-1.36,2.57-2.73,3.87-4.1c1.31-1.37,2.62-2.75,3.94-4.14c1.46-1.54,2.95-3.08,4.45-4.63c1.2-1.24,2.41-2.49,3.63-3.74
				c1.05-1.07,2.1-2.13,3.16-3.2c1.06-1.08,2.12-2.15,3.2-3.23c1.07-1.07,2.14-2.15,3.23-3.23c1.22-1.22,2.44-2.44,3.68-3.66
				c1.72-1.7,3.45-3.41,5.19-5.12c14.04-13.81,29-28.02,44.88-42.65c2.17-2,4.36-4.01,6.57-6.03c0.73-0.67,1.46-1.34,2.19-2
				c1.47-1.34,2.95-2.69,4.44-4.04c5.65-5.13,11.41-10.3,17.28-15.52c0.07-0.07,0.14-0.13,0.21-0.18v-0.01
				c5.27-4.7,10.63-9.43,16.08-14.19c0.47-0.42,0.95-0.83,1.42-1.24v-19.85c-5.94,5.14-11.77,10.24-17.5,15.29
				c-39.75,35.02-74.75,67.88-104.78,98.4c-39.38,40.45-70.11,77.11-91.33,108.94c-24.4,36.61-32.58,60.57-26.48,77.66
				c4.62,13.54,18.61,19.6,41.59,18.03l0.29-0.03c19.95-1.76,43.37-8.7,71.57-21.23c27.29-12.14,56.78-29.92,87.66-52.87
				c7.22-5.37,14.37-10.93,21.48-16.67c5.88-4.75,11.71-9.63,17.5-14.64v-13.1c2.36-2.17,4.7-4.37,7.04-6.58L1231.08,3027.91
				L1231.08,3027.91z M1231.08,3027.91c-1.17,1.08-2.35,2.16-3.52,3.22c-2.18,1.98-4.36,3.94-6.55,5.88
				c-0.27,0.24-0.54,0.48-0.81,0.72c-1.09,0.95-2.18,1.91-3.27,2.86c-0.9,0.8-1.8,1.58-2.7,2.35c-1.27,1.11-2.55,2.2-3.83,3.29
				c-1.28,1.09-2.56,2.17-3.85,3.25v0.01c-0.85,0.72-1.71,1.43-2.56,2.14c-9.16,7.59-18.46,14.9-27.88,21.91
				c-30.14,22.4-58.4,39.46-84.8,51.2c-26.4,11.73-48.67,18.4-66.8,20c-4.69,0.32-8.77,0.3-12.23-0.06
				c-0.42-0.04-0.84-0.09-1.25-0.15c-0.07-0.01-0.15-0.02-0.21-0.03c-0.4-0.05-0.78-0.11-1.17-0.18c-0.78-0.14-1.52-0.3-2.22-0.48
				c-0.23-0.05-0.47-0.11-0.69-0.18c-0.23-0.06-0.46-0.13-0.68-0.2c-0.3-0.09-0.6-0.19-0.88-0.3c-0.22-0.08-0.44-0.16-0.65-0.25
				c-0.1-0.04-0.21-0.08-0.31-0.13c-0.25-0.1-0.49-0.21-0.72-0.33c-0.65-0.31-1.23-0.65-1.77-1.02c-0.24-0.17-0.47-0.34-0.69-0.53
				c-0.23-0.18-0.44-0.37-0.64-0.56c-0.26-0.26-0.51-0.53-0.74-0.8c-0.27-0.33-0.52-0.67-0.73-1.03c-0.1-0.18-0.2-0.35-0.29-0.53
				c-0.2-0.4-0.38-0.81-0.52-1.24c-4.27-11.74,4-33.2,24.8-64.4c1.3-1.95,2.64-3.92,4-5.9c1.38-1.99,2.78-3.99,4.22-6.01
				c1.45-2.02,2.92-4.05,4.43-6.1c3.03-4.11,6.2-8.29,9.5-12.53c4.75-6.1,9.79-12.34,15.14-18.72c0.47-0.56,0.93-1.11,1.41-1.67
				c1.2-1.44,2.43-2.9,3.69-4.36c0.91-1.07,1.84-2.15,2.77-3.23c1.09-1.28,2.2-2.56,3.33-3.85c3.37-3.85,6.84-7.76,10.4-11.72
				c0-0.01,0.01-0.01,0.01-0.01c1.19-1.31,2.39-2.64,3.6-3.97c1.22-1.33,2.44-2.66,3.67-4c2.47-2.69,4.99-5.39,7.54-8.12
				c1.28-1.36,2.57-2.73,3.87-4.1c1.31-1.37,2.62-2.75,3.94-4.14c1.46-1.54,2.95-3.08,4.45-4.63c1.2-1.24,2.41-2.49,3.63-3.74
				c1.05-1.07,2.1-2.13,3.16-3.2c1.06-1.08,2.12-2.15,3.2-3.23c1.07-1.07,2.14-2.15,3.23-3.23c1.22-1.22,2.44-2.44,3.68-3.66
				c1.72-1.7,3.45-3.41,5.19-5.12c14.04-13.81,29-28.02,44.88-42.65c2.17-2,4.36-4.01,6.57-6.03c0.73-0.67,1.46-1.34,2.19-2
				c1.47-1.34,2.95-2.69,4.44-4.04c5.65-5.13,11.41-10.3,17.28-15.52c0.07-0.07,0.14-0.13,0.21-0.18v-0.01
				c5.27-4.7,10.63-9.43,16.08-14.19c0.47-0.42,0.95-0.83,1.42-1.24v-19.85c-5.94,5.14-11.77,10.24-17.5,15.29
				c-39.75,35.02-74.75,67.88-104.78,98.4c-39.38,40.45-70.11,77.11-91.33,108.94c-24.4,36.61-32.58,60.57-26.48,77.66
				c4.62,13.54,18.61,19.6,41.59,18.03l0.29-0.03c19.95-1.76,43.37-8.7,71.57-21.23c27.29-12.14,56.78-29.92,87.66-52.87
				c7.22-5.37,14.37-10.93,21.48-16.67c5.88-4.75,11.71-9.63,17.5-14.64v-13.1c2.36-2.17,4.7-4.37,7.04-6.58L1231.08,3027.91
				L1231.08,3027.91z M1231.08,3027.91c-1.17,1.08-2.35,2.16-3.52,3.22c-2.18,1.98-4.36,3.94-6.55,5.88
				c-0.27,0.24-0.54,0.48-0.81,0.72c-1.09,0.95-2.18,1.91-3.27,2.86c-0.9,0.8-1.8,1.58-2.7,2.35c-1.27,1.11-2.55,2.2-3.83,3.29
				c-1.28,1.09-2.56,2.17-3.85,3.25v0.01c-0.85,0.72-1.71,1.43-2.56,2.14c-9.16,7.59-18.46,14.9-27.88,21.91
				c-30.14,22.4-58.4,39.46-84.8,51.2c-26.4,11.73-48.67,18.4-66.8,20c-4.69,0.32-8.77,0.3-12.23-0.06
				c-0.42-0.04-0.84-0.09-1.25-0.15c-0.07-0.01-0.15-0.02-0.21-0.03c-0.4-0.05-0.78-0.11-1.17-0.18c-0.78-0.14-1.52-0.3-2.22-0.48
				c-0.23-0.05-0.47-0.11-0.69-0.18c-0.23-0.06-0.46-0.13-0.68-0.2c-0.3-0.09-0.6-0.19-0.88-0.3c-0.22-0.08-0.44-0.16-0.65-0.25
				c-0.1-0.04-0.21-0.08-0.31-0.13c-0.25-0.1-0.49-0.21-0.72-0.33c-0.65-0.31-1.23-0.65-1.77-1.02c-0.24-0.17-0.47-0.34-0.69-0.53
				c-0.23-0.18-0.44-0.37-0.64-0.56c-0.26-0.26-0.51-0.53-0.74-0.8c-0.27-0.33-0.52-0.67-0.73-1.03c-0.1-0.18-0.2-0.35-0.29-0.53
				c-0.2-0.4-0.38-0.81-0.52-1.24c-4.27-11.74,4-33.2,24.8-64.4c1.3-1.95,2.64-3.92,4-5.9c1.38-1.99,2.78-3.99,4.22-6.01
				c1.45-2.02,2.92-4.05,4.43-6.1c3.03-4.11,6.2-8.29,9.5-12.53c4.75-6.1,9.79-12.34,15.14-18.72c0.47-0.56,0.93-1.11,1.41-1.67
				c1.2-1.44,2.43-2.9,3.69-4.36c0.91-1.07,1.84-2.15,2.77-3.23c1.09-1.28,2.2-2.56,3.33-3.85c3.37-3.85,6.84-7.76,10.4-11.72
				c0-0.01,0.01-0.01,0.01-0.01c1.19-1.31,2.39-2.64,3.6-3.97c1.22-1.33,2.44-2.66,3.67-4c2.47-2.69,4.99-5.39,7.54-8.12
				c1.28-1.36,2.57-2.73,3.87-4.1c1.31-1.37,2.62-2.75,3.94-4.14c1.46-1.54,2.95-3.08,4.45-4.63c1.2-1.24,2.41-2.49,3.63-3.74
				c1.05-1.07,2.1-2.13,3.16-3.2c1.06-1.08,2.12-2.15,3.2-3.23c1.07-1.07,2.14-2.15,3.23-3.23c1.22-1.22,2.44-2.44,3.68-3.66
				c1.72-1.7,3.45-3.41,5.19-5.12c14.04-13.81,29-28.02,44.88-42.65c2.17-2,4.36-4.01,6.57-6.03c0.73-0.67,1.46-1.34,2.19-2
				c1.47-1.34,2.95-2.69,4.44-4.04c5.65-5.13,11.41-10.3,17.28-15.52c0.07-0.07,0.14-0.13,0.21-0.18v-0.01
				c5.27-4.7,10.63-9.43,16.08-14.19c0.47-0.42,0.95-0.83,1.42-1.24v-19.85c-5.94,5.14-11.77,10.24-17.5,15.29
				c-39.75,35.02-74.75,67.88-104.78,98.4c-39.38,40.45-70.11,77.11-91.33,108.94c-24.4,36.61-32.58,60.57-26.48,77.66
				c4.62,13.54,18.61,19.6,41.59,18.03l0.29-0.03c19.95-1.76,43.37-8.7,71.57-21.23c27.29-12.14,56.78-29.92,87.66-52.87
				c7.22-5.37,14.37-10.93,21.48-16.67c5.88-4.75,11.71-9.63,17.5-14.64v-13.1c2.36-2.17,4.7-4.37,7.04-6.58L1231.08,3027.91
				L1231.08,3027.91z M1101.77,2955.08c-39.38,40.45-70.11,77.11-91.33,108.94c-24.4,36.61-32.58,60.57-26.48,77.66
				c4.62,13.54,18.61,19.6,41.59,18.03l0.29-0.03c19.95-1.76,43.37-8.7,71.57-21.23c27.29-12.14,56.78-29.92,87.66-52.87
				c7.22-5.37,14.37-10.93,21.48-16.67v-19.42c-0.85,0.72-1.71,1.43-2.56,2.14c-9.16,7.59-18.46,14.9-27.88,21.91
				c-30.14,22.4-58.4,39.46-84.8,51.2c-26.4,11.73-48.67,18.4-66.8,20c-4.69,0.32-8.77,0.3-12.23-0.06
				c-0.42-0.04-0.84-0.09-1.25-0.15c-0.07-0.01-0.15-0.02-0.21-0.03c-0.4-0.05-0.78-0.11-1.17-0.18c-0.78-0.14-1.52-0.3-2.22-0.48
				c-0.23-0.05-0.47-0.11-0.69-0.18c-0.23-0.06-0.46-0.13-0.68-0.2c-0.3-0.09-0.6-0.19-0.88-0.3c-0.22-0.08-0.44-0.16-0.65-0.25
				c-0.1-0.04-0.21-0.08-0.31-0.13c-0.25-0.1-0.49-0.21-0.72-0.33c-0.65-0.31-1.23-0.65-1.77-1.02c-0.24-0.17-0.47-0.34-0.69-0.53
				c-0.23-0.18-0.44-0.37-0.64-0.56c-0.26-0.26-0.51-0.53-0.74-0.8c-0.27-0.33-0.52-0.67-0.73-1.03c-0.1-0.18-0.2-0.35-0.29-0.53
				c-0.2-0.4-0.38-0.81-0.52-1.24c-4.27-11.74,4-33.2,24.8-64.4c1.3-1.95,2.64-3.92,4-5.9c1.38-1.99,2.78-3.99,4.22-6.01
				c1.45-2.02,2.92-4.05,4.43-6.1c3.03-4.11,6.2-8.29,9.5-12.53c4.75-6.1,9.79-12.34,15.14-18.72c0.47-0.56,0.93-1.11,1.41-1.67
				c1.2-1.44,2.43-2.9,3.69-4.36c0.91-1.07,1.84-2.15,2.77-3.23c1.09-1.28,2.2-2.56,3.33-3.85c3.37-3.85,6.84-7.76,10.4-11.72
				c0-0.01,0.01-0.01,0.01-0.01c1.19-1.31,2.39-2.64,3.6-3.97c1.22-1.33,2.44-2.66,3.67-4c2.47-2.69,4.99-5.39,7.54-8.12
				c1.28-1.36,2.57-2.73,3.87-4.1c1.31-1.37,2.62-2.75,3.94-4.14c1.46-1.54,2.95-3.08,4.45-4.63c1.2-1.24,2.41-2.49,3.63-3.74
				c1.05-1.07,2.1-2.13,3.16-3.2c1.06-1.08,2.12-2.15,3.2-3.23c1.07-1.07,2.14-2.15,3.23-3.23c1.22-1.22,2.44-2.44,3.68-3.66
				c1.72-1.7,3.45-3.41,5.19-5.12c14.04-13.81,29-28.02,44.88-42.65c2.17-2,4.36-4.01,6.57-6.03c0.73-0.67,1.46-1.34,2.19-2
				c1.47-1.34,2.95-2.69,4.44-4.04c5.65-5.13,11.41-10.3,17.28-15.52c0.07-0.07,0.14-0.13,0.21-0.18v-20
				C1166.8,2891.7,1131.8,2924.56,1101.77,2955.08z M1224.05,2841.39c-5.94,5.14-11.77,10.24-17.5,15.29
				c-39.75,35.02-74.75,67.88-104.78,98.4c-39.38,40.45-70.11,77.11-91.33,108.94c-24.4,36.61-32.58,60.57-26.48,77.66
				c4.62,13.54,18.61,19.6,41.59,18.03l0.29-0.03c19.95-1.76,43.37-8.7,71.57-21.23c27.29-12.14,56.78-29.92,87.66-52.87
				c7.22-5.37,14.37-10.93,21.48-16.67c5.88-4.75,11.71-9.63,17.5-14.64c2.36-2.03,4.7-4.08,7.04-6.16v-20.2h-0.01
				c-1.17,1.08-2.35,2.16-3.52,3.22c-2.18,1.98-4.36,3.94-6.55,5.88c-0.27,0.24-0.54,0.48-0.81,0.72c-1.09,0.95-2.18,1.91-3.27,2.86
				c-0.9,0.8-1.8,1.58-2.7,2.35c-1.27,1.11-2.55,2.2-3.83,3.29c-1.28,1.09-2.56,2.17-3.85,3.25v0.01c-0.85,0.72-1.71,1.43-2.56,2.14
				c-9.16,7.59-18.46,14.9-27.88,21.91c-30.14,22.4-58.4,39.46-84.8,51.2c-26.4,11.73-48.67,18.4-66.8,20
				c-4.69,0.32-8.77,0.3-12.23-0.06c-0.42-0.04-0.84-0.09-1.25-0.15c-0.07-0.01-0.15-0.02-0.21-0.03c-0.4-0.05-0.78-0.11-1.17-0.18
				c-0.78-0.14-1.52-0.3-2.22-0.48c-0.23-0.05-0.47-0.11-0.69-0.18c-0.23-0.06-0.46-0.13-0.68-0.2c-0.3-0.09-0.6-0.19-0.88-0.3
				c-0.22-0.08-0.44-0.16-0.65-0.25c-0.1-0.04-0.21-0.08-0.31-0.13c-0.25-0.1-0.49-0.21-0.72-0.33c-0.65-0.31-1.23-0.65-1.77-1.02
				c-0.24-0.17-0.47-0.34-0.69-0.53c-0.23-0.18-0.44-0.37-0.64-0.56c-0.26-0.26-0.51-0.53-0.74-0.8c-0.27-0.33-0.52-0.67-0.73-1.03
				c-0.1-0.18-0.2-0.35-0.29-0.53c-0.2-0.4-0.38-0.81-0.52-1.24c-4.27-11.74,4-33.2,24.8-64.4c1.3-1.95,2.64-3.92,4-5.9
				c1.38-1.99,2.78-3.99,4.22-6.01c1.45-2.02,2.92-4.05,4.43-6.1c3.03-4.11,6.2-8.29,9.5-12.53c4.75-6.1,9.79-12.34,15.14-18.72
				c0.47-0.56,0.93-1.11,1.41-1.67c1.2-1.44,2.43-2.9,3.69-4.36c0.91-1.07,1.84-2.15,2.77-3.23c1.09-1.28,2.2-2.56,3.33-3.85
				c3.37-3.85,6.84-7.76,10.4-11.72c0-0.01,0.01-0.01,0.01-0.01c1.19-1.31,2.39-2.64,3.6-3.97c1.22-1.33,2.44-2.66,3.67-4
				c2.47-2.69,4.99-5.39,7.54-8.12c1.28-1.36,2.57-2.73,3.87-4.1c1.31-1.37,2.62-2.75,3.94-4.14c1.46-1.54,2.95-3.08,4.45-4.63
				c1.2-1.24,2.41-2.49,3.63-3.74c1.05-1.07,2.1-2.13,3.16-3.2c1.06-1.08,2.12-2.15,3.2-3.23c1.07-1.07,2.14-2.15,3.23-3.23
				c1.22-1.22,2.44-2.44,3.68-3.66c1.72-1.7,3.45-3.41,5.19-5.12c14.04-13.81,29-28.02,44.88-42.65c2.17-2,4.36-4.01,6.57-6.03
				c0.73-0.67,1.46-1.34,2.19-2c1.47-1.34,2.95-2.69,4.44-4.04c5.65-5.13,11.41-10.3,17.28-15.52c0.07-0.07,0.14-0.13,0.21-0.18
				v-0.01c5.27-4.7,10.63-9.43,16.08-14.19c0.47-0.42,0.95-0.83,1.42-1.24v-0.01c0.93-0.81,1.86-1.63,2.79-2.43
				c1.41-1.23,2.82-2.46,4.24-3.69v-0.01h0.01v-19.8C1228.73,2837.34,1226.38,2839.37,1224.05,2841.39z M1224.05,2841.39
				c-5.94,5.14-11.77,10.24-17.5,15.29c-39.75,35.02-74.75,67.88-104.78,98.4c-39.38,40.45-70.11,77.11-91.33,108.94
				c-24.4,36.61-32.58,60.57-26.48,77.66c4.62,13.54,18.61,19.6,41.59,18.03l0.29-0.03c19.95-1.76,43.37-8.7,71.57-21.23
				c27.29-12.14,56.78-29.92,87.66-52.87c7.22-5.37,14.37-10.93,21.48-16.67c5.88-4.75,11.71-9.63,17.5-14.64
				c2.36-2.03,4.7-4.08,7.04-6.16v-20.2h-0.01c-1.17,1.08-2.35,2.16-3.52,3.22c-2.18,1.98-4.36,3.94-6.55,5.88
				c-0.27,0.24-0.54,0.48-0.81,0.72c-1.09,0.95-2.18,1.91-3.27,2.86c-0.9,0.8-1.8,1.58-2.7,2.35c-1.27,1.11-2.55,2.2-3.83,3.29
				c-1.28,1.09-2.56,2.17-3.85,3.25v0.01c-0.85,0.72-1.71,1.43-2.56,2.14c-9.16,7.59-18.46,14.9-27.88,21.91
				c-30.14,22.4-58.4,39.46-84.8,51.2c-26.4,11.73-48.67,18.4-66.8,20c-4.69,0.32-8.77,0.3-12.23-0.06
				c-0.42-0.04-0.84-0.09-1.25-0.15c-0.07-0.01-0.15-0.02-0.21-0.03c-0.4-0.05-0.78-0.11-1.17-0.18c-0.78-0.14-1.52-0.3-2.22-0.48
				c-0.23-0.05-0.47-0.11-0.69-0.18c-0.23-0.06-0.46-0.13-0.68-0.2c-0.3-0.09-0.6-0.19-0.88-0.3c-0.22-0.08-0.44-0.16-0.65-0.25
				c-0.1-0.04-0.21-0.08-0.31-0.13c-0.25-0.1-0.49-0.21-0.72-0.33c-0.65-0.31-1.23-0.65-1.77-1.02c-0.24-0.17-0.47-0.34-0.69-0.53
				c-0.23-0.18-0.44-0.37-0.64-0.56c-0.26-0.26-0.51-0.53-0.74-0.8c-0.27-0.33-0.52-0.67-0.73-1.03c-0.1-0.18-0.2-0.35-0.29-0.53
				c-0.2-0.4-0.38-0.81-0.52-1.24c-4.27-11.74,4-33.2,24.8-64.4c1.3-1.95,2.64-3.92,4-5.9c1.38-1.99,2.78-3.99,4.22-6.01
				c1.45-2.02,2.92-4.05,4.43-6.1c3.03-4.11,6.2-8.29,9.5-12.53c4.75-6.1,9.79-12.34,15.14-18.72c0.47-0.56,0.93-1.11,1.41-1.67
				c1.2-1.44,2.43-2.9,3.69-4.36c0.91-1.07,1.84-2.15,2.77-3.23c1.09-1.28,2.2-2.56,3.33-3.85c3.37-3.85,6.84-7.76,10.4-11.72
				c0-0.01,0.01-0.01,0.01-0.01c1.19-1.31,2.39-2.64,3.6-3.97c1.22-1.33,2.44-2.66,3.67-4c2.47-2.69,4.99-5.39,7.54-8.12
				c1.28-1.36,2.57-2.73,3.87-4.1c1.31-1.37,2.62-2.75,3.94-4.14c1.46-1.54,2.95-3.08,4.45-4.63c1.2-1.24,2.41-2.49,3.63-3.74
				c1.05-1.07,2.1-2.13,3.16-3.2c1.06-1.08,2.12-2.15,3.2-3.23c1.07-1.07,2.14-2.15,3.23-3.23c1.22-1.22,2.44-2.44,3.68-3.66
				c1.72-1.7,3.45-3.41,5.19-5.12c14.04-13.81,29-28.02,44.88-42.65c2.17-2,4.36-4.01,6.57-6.03c0.73-0.67,1.46-1.34,2.19-2
				c1.47-1.34,2.95-2.69,4.44-4.04c5.65-5.13,11.41-10.3,17.28-15.52c0.07-0.07,0.14-0.13,0.21-0.18v-0.01
				c5.27-4.7,10.63-9.43,16.08-14.19c0.47-0.42,0.95-0.83,1.42-1.24v-0.01c0.93-0.81,1.86-1.63,2.79-2.43
				c1.41-1.23,2.82-2.46,4.24-3.69v-0.01h0.01v-19.8C1228.73,2837.34,1226.38,2839.37,1224.05,2841.39z M1224.05,2841.39
				c-5.94,5.14-11.77,10.24-17.5,15.29c-39.75,35.02-74.75,67.88-104.78,98.4c-39.38,40.45-70.11,77.11-91.33,108.94
				c-24.4,36.61-32.58,60.57-26.48,77.66c4.62,13.54,18.61,19.6,41.59,18.03l0.29-0.03c19.95-1.76,43.37-8.7,71.57-21.23
				c27.29-12.14,56.78-29.92,87.66-52.87c7.22-5.37,14.37-10.93,21.48-16.67c5.88-4.75,11.71-9.63,17.5-14.64
				c2.36-2.03,4.7-4.08,7.04-6.16v-20.2h-0.01c-1.17,1.08-2.35,2.16-3.52,3.22c-2.18,1.98-4.36,3.94-6.55,5.88
				c-0.27,0.24-0.54,0.48-0.81,0.72c-1.09,0.95-2.18,1.91-3.27,2.86c-0.9,0.8-1.8,1.58-2.7,2.35c-1.27,1.11-2.55,2.2-3.83,3.29
				c-1.28,1.09-2.56,2.17-3.85,3.25v0.01c-0.85,0.72-1.71,1.43-2.56,2.14c-9.16,7.59-18.46,14.9-27.88,21.91
				c-30.14,22.4-58.4,39.46-84.8,51.2c-26.4,11.73-48.67,18.4-66.8,20c-4.69,0.32-8.77,0.3-12.23-0.06
				c-0.42-0.04-0.84-0.09-1.25-0.15c-0.07-0.01-0.15-0.02-0.21-0.03c-0.4-0.05-0.78-0.11-1.17-0.18c-0.78-0.14-1.52-0.3-2.22-0.48
				c-0.23-0.05-0.47-0.11-0.69-0.18c-0.23-0.06-0.46-0.13-0.68-0.2c-0.3-0.09-0.6-0.19-0.88-0.3c-0.22-0.08-0.44-0.16-0.65-0.25
				c-0.1-0.04-0.21-0.08-0.31-0.13c-0.25-0.1-0.49-0.21-0.72-0.33c-0.65-0.31-1.23-0.65-1.77-1.02c-0.24-0.17-0.47-0.34-0.69-0.53
				c-0.23-0.18-0.44-0.37-0.64-0.56c-0.26-0.26-0.51-0.53-0.74-0.8c-0.27-0.33-0.52-0.67-0.73-1.03c-0.1-0.18-0.2-0.35-0.29-0.53
				c-0.2-0.4-0.38-0.81-0.52-1.24c-4.27-11.74,4-33.2,24.8-64.4c1.3-1.95,2.64-3.92,4-5.9c1.38-1.99,2.78-3.99,4.22-6.01
				c1.45-2.02,2.92-4.05,4.43-6.1c3.03-4.11,6.2-8.29,9.5-12.53c4.75-6.1,9.79-12.34,15.14-18.72c0.47-0.56,0.93-1.11,1.41-1.67
				c1.2-1.44,2.43-2.9,3.69-4.36c0.91-1.07,1.84-2.15,2.77-3.23c1.09-1.28,2.2-2.56,3.33-3.85c3.37-3.85,6.84-7.76,10.4-11.72
				c0-0.01,0.01-0.01,0.01-0.01c1.19-1.31,2.39-2.64,3.6-3.97c1.22-1.33,2.44-2.66,3.67-4c2.47-2.69,4.99-5.39,7.54-8.12
				c1.28-1.36,2.57-2.73,3.87-4.1c1.31-1.37,2.62-2.75,3.94-4.14c1.46-1.54,2.95-3.08,4.45-4.63c1.2-1.24,2.41-2.49,3.63-3.74
				c1.05-1.07,2.1-2.13,3.16-3.2c1.06-1.08,2.12-2.15,3.2-3.23c1.07-1.07,2.14-2.15,3.23-3.23c1.22-1.22,2.44-2.44,3.68-3.66
				c1.72-1.7,3.45-3.41,5.19-5.12c14.04-13.81,29-28.02,44.88-42.65c2.17-2,4.36-4.01,6.57-6.03c0.73-0.67,1.46-1.34,2.19-2
				c1.47-1.34,2.95-2.69,4.44-4.04c5.65-5.13,11.41-10.3,17.28-15.52c0.07-0.07,0.14-0.13,0.21-0.18v-0.01
				c5.27-4.7,10.63-9.43,16.08-14.19c0.47-0.42,0.95-0.83,1.42-1.24v-0.01c0.93-0.81,1.86-1.63,2.79-2.43
				c1.41-1.23,2.82-2.46,4.24-3.69v-0.01h0.01v-19.8C1228.73,2837.34,1226.38,2839.37,1224.05,2841.39z"/>
			<path class="st0" d="M1022.92,3072.34c-20.8,31.2-29.07,52.66-24.8,64.4c0.14,0.43,0.32,0.84,0.52,1.24
				c-0.21-0.4-0.39-0.81-0.53-1.24c-4.27-11.74,4-33.2,24.8-64.4c1.3-1.95,2.64-3.92,4.01-5.9
				C1025.56,3068.42,1024.22,3070.39,1022.92,3072.34z"/>
			<path class="st0" d="M1031.14,3060.43c-1.44,2.02-2.84,4.02-4.22,6.01C1028.29,3064.45,1029.69,3062.45,1031.14,3060.43z"/>
			<path class="st0" d="M1035.57,3054.33c-1.51,2.05-2.98,4.08-4.43,6.1C1032.58,3058.41,1034.05,3056.38,1035.57,3054.33z"/>
			<path class="st0" d="M1045.07,3041.8c-3.3,4.24-6.47,8.42-9.5,12.53C1038.59,3050.22,1041.76,3046.04,1045.07,3041.8z"/>
			<path class="st0" d="M1081.81,2998.25c-3.56,3.96-7.03,7.87-10.4,11.72C1074.77,3006.11,1078.24,3002.2,1081.81,2998.25z"/>
			<path class="st0" d="M1096.63,2982.15c-2.55,2.73-5.07,5.43-7.54,8.12C1091.55,2987.59,1094.06,2984.88,1096.63,2982.15z"/>
			<path class="st0" d="M1115.68,2962.34c-1.06,1.07-2.11,2.13-3.16,3.2c-1.22,1.25-2.43,2.5-3.63,3.74c1.2-1.24,2.4-2.49,3.62-3.74
				C1113.56,2964.47,1114.61,2963.41,1115.68,2962.34z"/>
			<path class="st0" d="M1206.55,2876.67v0.01c-0.07,0.05-0.14,0.11-0.21,0.18C1206.41,2876.79,1206.48,2876.73,1206.55,2876.67z"/>
			<path class="st0" d="M1224.05,2861.23v0.01c-0.47,0.41-0.95,0.82-1.42,1.24C1223.1,2862.05,1223.58,2861.64,1224.05,2861.23z"/>
			<path class="st0" d="M1231.08,2855.1v0.01c-1.42,1.23-2.83,2.46-4.24,3.69C1228.25,2857.56,1229.66,2856.33,1231.08,2855.1z"/>
			<path class="st0" d="M1382.91,2730.34v0.01c-1.1,0.86-2.19,1.72-3.29,2.58C1380.71,2732.06,1381.81,2731.2,1382.91,2730.34z"/>
			<path class="st0" d="M1233.98,2852.59c-0.96,0.84-1.93,1.68-2.89,2.51v-0.01C1232.05,2854.26,1233.01,2853.42,1233.98,2852.59z"
				/>
			<path class="st0" d="M1204.39,3091.47c0.72-0.57,1.44-1.13,2.16-1.69v0.01C1205.83,3090.35,1205.11,3090.91,1204.39,3091.47z"/>
			<path class="st0" d="M1231.08,3069.75v0.01c-1.46,1.25-2.92,2.49-4.39,3.72C1228.16,3072.24,1229.62,3071,1231.08,3069.75z"/>
		</g>
		<path d="M1639.72,2520.34c-2.67-3.46-6-5.6-10-6.4c-0.87-0.17-1.74-0.27-2.6-0.28c-0.99,5.6-2.01,11.35-3.05,17.25
			c-0.04,0.2-0.08,0.4-0.11,0.6c-1.22,6.86-2.47,13.92-3.75,21.17c5.14-3.71,10.31-7.42,15.51-11.14c3.73-2.66,6-6,6.8-10
			S1642.38,2523.82,1639.72,2520.34z M1680.51,2340.34c-3.2-2.92-6.94-4.12-11.2-3.6c-3.74,0-7.07,1.48-10,4.4
			c-2.94,2.94-4.4,6.54-4.4,10.8c-0.41,5.32-8.8,54.27-25.17,146.86c0.97,0.09,1.94,0.24,2.92,0.43c7.51,1.5,14.06,5.63,18.93,11.94
			c2.53,3.3,4.3,6.83,5.27,10.52c19.5-109.93,29.25-166.78,29.25-170.55C1685.57,2346.88,1683.71,2343.28,1680.51,2340.34z
			 M1812.51,2444.34c-5.34-20.52-16-33.2-32-38c-3.2-1.06-6.8-1.72-10.8-2c-4-0.26-8.8,0.54-14.4,2.4c-5.6,1.88-11.34,4.8-17.2,8.8
			c-5.87,4-12.54,10-20,18c-7.47,8-14.8,17.88-22,29.6c-7.2,11.74-14.94,26.68-23.2,44.8c-8.27,18.14-16.4,38.4-24.4,60.8
			c1.42-8,2.81-15.79,4.15-23.35c-2.12,3.16-4.88,5.96-8.22,8.35c-9.41,6.74-18.75,13.45-28,20.14c-1.28,7.18-2.59,14.53-3.93,22.06
			c-6.4,36.8-11.46,64.54-15.2,83.2c-11.2,4.8-22.12,8.54-32.8,11.2c-4.26,1.08-7.46,3.48-9.6,7.2c-2.12,3.74-2.66,7.73-1.6,12
			c1.08,4.26,3.48,7.46,7.2,9.6c3.74,2.13,7.74,2.4,12,0.8c6.4-1.6,12.8-3.47,19.2-5.6c-47.46,267.2-78.12,447.46-92,540.8
			c-0.52,2.66-0.26,5.33,0.8,8c1.08,2.66,2.68,4.8,4.8,6.4c2.14,1.6,4.54,2.66,7.2,3.2h2.4c8.54,0,13.6-4.27,15.2-12.8
			c11.2-67.74,28.68-159.87,52.4-276.4c23.74-116.54,45.2-214,64.4-292.4c25.06-12.8,48-27.72,68.8-44.8
			c50.13-40,81.6-83.46,94.4-130.4C1817.04,2488.74,1817.84,2464.88,1812.51,2444.34z M1780.51,2507.94
			c-7.47,27.2-22.27,53.08-44.4,77.6c-22.14,24.54-48.4,46.14-78.8,64.8c7.46-28.8,13.86-51.2,19.2-67.2
			c8-23.46,16.13-44.26,24.4-62.4c8.26-18.12,15.73-32.4,22.4-42.8c6.66-10.4,13.2-18.92,19.6-25.6c6.4-6.66,11.6-11.2,15.6-13.6
			c4-2.4,7.6-3.6,10.8-3.6c1.06,0,1.86,0.28,2.4,0.8c5.86,1.6,10,8.8,12.4,21.6C1786.51,2470.34,1785.31,2487.14,1780.51,2507.94z"
			/>
		<path d="M1656.86,2521.69c0.01,0.01,0.01,0.01,0,0.02c-1.35,7.64-2.75,15.53-4.2,23.68c-2.12,3.16-4.88,5.96-8.22,8.35
			c-9.41,6.74-18.75,13.45-28,20.14c1.28-7.24,2.54-14.31,3.76-21.2h0.01c5.14-3.71,10.31-7.42,15.51-11.14c3.73-2.66,6-6,6.8-10
			s-0.14-7.72-2.8-11.2c-2.67-3.46-6-5.6-10-6.4c-0.87-0.17-1.74-0.27-2.6-0.28c0.9-5.07,1.77-10.03,2.62-14.86
			c0.97,0.09,1.94,0.24,2.92,0.43c7.51,1.5,14.06,5.63,18.93,11.94C1654.12,2514.47,1655.89,2518,1656.86,2521.69z"/>
		<g>
			<path d="M3008.39,2231.14c-3.74-5.86-16.14-10-37.2-12.4c-21.08-2.4-72.4-4.12-154-5.2c-81.6-1.06-202.4,0.54-362.4,4.8
				c16.52-66.12,31.2-122.92,44-170.4c1.06-4.26,0.52-8.26-1.6-12c-2.14-3.72-5.2-6.12-9.2-7.2c-4-1.06-7.88-0.52-11.6,1.6
				c-3.74,2.14-6.14,5.34-7.2,9.6c-13.34,49.08-28.54,108.8-45.6,179.2c-43.2,1.08-91.2,2.14-144,3.2c-84.8,2.68-134.67,4-149.6,4
				c-2.67,0-5.2,0.68-7.6,2c-2.4,1.34-4.27,3.2-5.6,5.6c-1.33,2.4-2,4.94-2,7.6c0,4.28,1.47,7.88,4.4,10.8
				c2.93,2.94,6.53,4.4,10.8,4.4c14.93,0,65.07-1.06,150.4-3.2c53.86-1.6,98.92-2.66,135.2-3.2c-36.28,153.6-72.28,316.8-108,489.6
				c-26.67,128-46.67,232-60,312c-7.47,42.13-12.27,74.4-14.4,96.8c-2.67,15.47-3.33,27.73-2,36.8c1.33,9.07,5.47,14.67,12.4,16.8
				c2.13,0.53,4,0.8,5.6,0.8c4.27,0,8.27-2,12-6c1.56-1.67,2.96-3.35,4.19-5.02c1.72-2.33,3.12-4.65,4.21-6.98
				c1.87-4,4.13-10.27,6.8-18.8c1.6-3.73,1.6-7.6,0-11.6c-1.6-4-4.53-6.53-8.8-7.6c-0.14-0.07-0.29-0.14-0.43-0.2
				c-0.93-0.4-1.84-0.6-2.77-0.6c9.07-76.8,34.93-217.87,77.6-423.2c35.72-170.12,70.92-328,105.6-473.6
				c333.86-7.46,513.6-6.66,539.2,2.4c5.86,4.8,12,5.08,18.4,0.8c3.72-2.66,5.86-6.12,6.4-10.4
				C3012.11,2238.08,3011.05,2234.34,3008.39,2231.14z"/>
			<path d="M3008.39,2231.14c-3.74-5.86-16.14-10-37.2-12.4c-21.08-2.4-72.4-4.12-154-5.2c-81.6-1.06-202.4,0.54-362.4,4.8
				c16.52-66.12,31.2-122.92,44-170.4c1.06-4.26,0.52-8.26-1.6-12c-2.14-3.72-5.2-6.12-9.2-7.2c-4-1.06-7.88-0.52-11.6,1.6
				c-3.74,2.14-6.14,5.34-7.2,9.6c-13.34,49.08-28.54,108.8-45.6,179.2c-43.2,1.08-91.2,2.14-144,3.2c-84.8,2.68-134.67,4-149.6,4
				c-2.67,0-5.2,0.68-7.6,2c-2.4,1.34-4.27,3.2-5.6,5.6c-1.33,2.4-2,4.94-2,7.6c0,4.28,1.47,7.88,4.4,10.8
				c2.93,2.94,6.53,4.4,10.8,4.4c14.93,0,65.07-1.06,150.4-3.2c53.86-1.6,98.92-2.66,135.2-3.2c-36.28,153.6-72.28,316.8-108,489.6
				c-26.67,128-46.67,232-60,312c-7.47,42.13-12.27,74.4-14.4,96.8c-2.67,15.47-3.33,27.73-2,36.8c1.33,9.07,5.47,14.67,12.4,16.8
				c2.13,0.53,4,0.8,5.6,0.8c4.27,0,8.27-2,12-6c1.56-1.67,2.96-3.35,4.19-5.02c1.72-2.33,3.12-4.65,4.21-6.98
				c1.87-4,4.13-10.27,6.8-18.8c1.6-3.73,1.6-7.6,0-11.6c-1.6-4-4.53-6.53-8.8-7.6c-0.14-0.07-0.29-0.14-0.43-0.2
				c-0.93-0.4-1.84-0.6-2.77-0.6c9.07-76.8,34.93-217.87,77.6-423.2c35.72-170.12,70.92-328,105.6-473.6
				c333.86-7.46,513.6-6.66,539.2,2.4c5.86,4.8,12,5.08,18.4,0.8c3.72-2.66,5.86-6.12,6.4-10.4
				C3012.11,2238.08,3011.05,2234.34,3008.39,2231.14z M2438.16,2222.68c16.93-69.85,32.24-130.01,45.5-178.8l0.08-0.31
				c0.02-0.07,0.04-0.13,0.05-0.18c0.01-0.01,0.02-0.01,0.03-0.02c0.11-0.06,0.19-0.1,0.25-0.13c0.03,0.04,0.05,0.07,0.08,0.12
				c0.18,0.33,0.22,0.39,0.11,0.85c-12.87,47.71-27.68,105.08-44.03,170.5l-4.58,18.34L2438.16,2222.68z M2832.85,2229.55
				c-89.58-0.41-219.31,1.28-385.6,5l-11.57,0.26l-2.69,11.26c-34.52,144.99-70.08,304.46-105.69,474.02
				c-42.54,204.74-68.72,347.56-77.81,424.5l-1.98,16.75h14.72l-0.16,0.53c-3.07,9.83-4.99,14.62-6.08,16.94
				c-1.19,2.55-3.13,5.27-5.78,8.11c-0.64,0.69-1.09,1.04-1.34,1.2c-0.22-0.03-0.57-0.09-1.06-0.19c-0.8-0.44-1.4-1.98-1.78-4.55
				c-0.75-5.14-1.02-14.88,1.94-32.09l0.15-1.12c2.09-21.92,6.88-54.09,14.24-95.61l0.02-0.15c13.24-79.43,33.39-184.2,59.9-311.43
				c35.53-171.86,71.83-336.44,107.9-489.19l4.43-18.73l-19.25,0.29c-36.44,0.54-82,1.61-135.35,3.2
				c-84.63,2.12-135.11,3.19-150.02,3.19h-0.2v-0.2c0-0.02,0-0.07,0.03-0.16c0.1-0.04,0.14-0.04,0.17-0.04
				c15.27,0,65.73-1.34,149.99-4c53.42-1.08,101.86-2.15,143.98-3.2l11.49-0.29v0.02l19.74-0.53c159.05-4.24,280.78-5.85,361.8-4.8
				c80.79,1.07,132.1,2.79,152.5,5.11c3.58,0.41,6.71,0.85,9.43,1.3C2960.94,2232.31,2922.6,2229.95,2832.85,2229.55z
				 M2996.49,2240.5c-0.06-0.05-0.13-0.1-0.2-0.16l-1.42-1.16c0.66,0.31,1.07,0.56,1.31,0.72l0.42,0.54
				C2996.56,2240.46,2996.53,2240.48,2996.49,2240.5z"/>
		</g>
	</g>
</g>
<g id="Calque_4">
</g>
<g id="picto">
	<g>
		<path d="M2079.41,2224.55c-19.81,37.21-46.66,87.65-32.31,128.92c5.57,15.61,16.94,28.13,30.18,38.58
			c28.24,21.39,53.5,48.33,65.74,82.24c21.04,56.72-4.7,114.95-49.89,151.03c-6.11,4.91-12.55,9.5-19.43,13.22
			c5.99-8.47,11.36-17.08,16.25-25.81c20.29-35.91,33.85-80.4,15.18-119.35c-10.27-22.36-28.66-41.06-48.58-56.72
			c-6.3-4.85-13.22-9.83-18.98-15.32c-6.77-6.2-12.96-13.24-18.19-20.8C1974.93,2336.29,2018.25,2258.25,2079.41,2224.55
			L2079.41,2224.55z"/>
		<path d="M1967.83,2404.55c-22.18,53.44-50.19,120.88-28.22,177.46c7.55,19.35,21.58,36.69,37.54,50.72
			c11.6,10.21,24.49,19.24,37.52,27.55c9.36,5.82,19.32,11.63,28.95,17.04c11.99,6.69,24.14,12.99,36.07,19.9
			c-35.01,0.59-69.49-6.18-101.6-21c-44.31-20.37-78.79-57.49-86-106.92C1883.13,2507,1919.13,2441.09,1967.83,2404.55
			L1967.83,2404.55z"/>
	</g>
</g>
</svg>
